Sweynheim&Pannartz-Subiaco-ProtoRoman120R.ufo
<glyph name="ampersand" format="1">
  <advance width="752"/>
  <unicode hex="0026"/>
  <outline>
    <contour>
      <point x="233" y="516" type="curve"/>
      <point x="179" y="516"/>
      <point x="124" y="484"/>
      <point x="124" y="400" type="curve"/>
      <point x="124" y="326"/>
      <point x="224" y="236"/>
      <point x="301" y="175" type="curve"/>
      <point x="371" y="119"/>
      <point x="512" y="8"/>
      <point x="584" y="-10" type="curve"/>
      <point x="632" y="30"/>
      <point x="708" y="125"/>
      <point x="742" y="211" type="curve"/>
      <point x="712" y="223" type="line"/>
      <point x="692" y="184"/>
      <point x="658" y="128"/>
      <point x="619" y="128" type="curve"/>
      <point x="550" y="128"/>
      <point x="424" y="206"/>
      <point x="387" y="232" type="curve"/>
      <point x="333" y="270"/>
      <point x="194" y="352"/>
      <point x="194" y="414" type="curve"/>
      <point x="194" y="442"/>
      <point x="207" y="457"/>
      <point x="236" y="457" type="curve"/>
      <point x="268" y="457"/>
      <point x="277" y="435"/>
      <point x="277" y="410" type="curve"/>
      <point x="277" y="374"/>
      <point x="255" y="353"/>
      <point x="220" y="340" type="curve"/>
      <point x="230" y="316" type="line"/>
      <point x="283" y="337"/>
      <point x="317" y="365"/>
      <point x="347" y="395" type="curve"/>
      <point x="357" y="474"/>
      <point x="302" y="516"/>
    </contour>
    <contour>
      <point x="191" y="302" type="curve"/>
      <point x="169" y="327" type="line"/>
      <point x="76" y="276"/>
      <point x="30" y="226"/>
      <point x="30" y="136" type="curve"/>
      <point x="30" y="37"/>
      <point x="90" y="-11"/>
      <point x="180" y="-11" type="curve"/>
      <point x="283" y="-11"/>
      <point x="412" y="84"/>
      <point x="476" y="155" type="curve"/>
      <point x="583" y="274"/>
      <point x="621" y="356"/>
      <point x="679" y="492" type="curve"/>
      <point x="676" y="498" type="line"/>
      <point x="521" y="494" type="line"/>
      <point x="521" y="469" type="line"/>
      <point x="540" y="459"/>
      <point x="560" y="442"/>
      <point x="560" y="405" type="curve"/>
      <point x="560" y="334"/>
      <point x="498" y="229"/>
      <point x="439" y="171" type="curve"/>
      <point x="380" y="113"/>
      <point x="307" y="85"/>
      <point x="237" y="85" type="curve"/>
      <point x="167" y="85"/>
      <point x="107" y="121"/>
      <point x="107" y="191" type="curve"/>
      <point x="107" y="248"/>
      <point x="149" y="282"/>
    </contour>
  </outline>
</glyph>
<glyph name="hyphen" format="1">
  <advance width="339"/>
  <unicode hex="002D"/>
  <outline>
    <contour>
      <point x="50" y="78" type="line"/>
      <point x="51" y="134" type="line"/>
      <point x="126" y="170"/>
      <point x="213" y="214"/>
      <point x="270" y="277" type="curve"/>
      <point x="289" y="277" type="line"/>
      <point x="283" y="170" type="line"/>
      <point x="209" y="143"/>
      <point x="121" y="104"/>
      <point x="64" y="74" type="curve"/>
    </contour>
  </outline>
</glyph>
<glyph name="period" format="1">
  <advance width="216"/>
  <unicode hex="002E"/>
  <outline>
    <contour>
      <point x="113" y="149" type="curve"/>
      <point x="113" y="149" type="line"/>
      <point x="84" y="126"/>
      <point x="58" y="100"/>
      <point x="35" y="74" type="curve"/>
      <point x="35" y="71" type="line"/>
      <point x="55" y="42"/>
      <point x="76" y="15"/>
      <point x="100" y="-9" type="curve"/>
      <point x="102" y="-9" type="line"/>
      <point x="131" y="13"/>
      <point x="158" y="39"/>
      <point x="181" y="64" type="curve"/>
      <point x="181" y="68" type="line"/>
      <point x="161" y="96"/>
      <point x="139" y="124"/>
    </contour>
  </outline>
</glyph>
<glyph name="A" format="1">
  <advance width="669"/>
  <unicode hex="0041"/>
  <outline>
    <contour>
      <point x="108" y="116" type="curve"/>
      <point x="166" y="281"/>
      <point x="311" y="576"/>
      <point x="311" y="630" type="curve"/>
      <point x="286" y="632" type="line"/>
      <point x="286" y="578"/>
      <point x="426" y="302"/>
      <point x="514" y="88" type="curve"/>
      <point x="529" y="51"/>
      <point x="510" y="47"/>
      <point x="484" y="30" type="curve"/>
      <point x="484" y="0" type="line"/>
      <point x="540" y="2"/>
      <point x="606" y="2"/>
      <point x="664" y="0" type="curve"/>
      <point x="664" y="30" type="line"/>
      <point x="396" y="577" type="line" smooth="yes"/>
      <point x="377" y="616"/>
      <point x="365" y="657"/>
      <point x="352" y="700" type="curve"/>
      <point x="291" y="700" type="line"/>
      <point x="282" y="670"/>
      <point x="278" y="647"/>
      <point x="253" y="590" type="curve"/>
      <point x="5" y="30" type="line"/>
      <point x="5" y="0" type="line"/>
      <point x="46" y="3"/>
      <point x="88" y="3"/>
      <point x="129" y="0" type="curve"/>
      <point x="129" y="30" type="line"/>
      <point x="91" y="55"/>
      <point x="92" y="71"/>
    </contour>
    <contour>
      <point x="408" y="343" type="line"/>
      <point x="191" y="343" type="line"/>
      <point x="171" y="299" type="line"/>
      <point x="429" y="299" type="line"/>
    </contour>
  </outline>
</glyph>
<glyph name="B" format="1">
  <advance width="639"/>
  <unicode hex="0042"/>
  <outline>
    <contour>
      <point x="33" y="643" type="curve"/>
      <point x="33" y="608" type="line"/>
      <point x="90" y="608" type="line"/>
      <point x="103" y="465"/>
      <point x="100" y="164"/>
      <point x="86" y="28" type="curve"/>
      <point x="161" y="14"/>
      <point x="238" y="-10"/>
      <point x="353" y="-10" type="curve"/>
      <point x="473" y="-10"/>
      <point x="609" y="65"/>
      <point x="609" y="205" type="curve"/>
      <point x="609" y="337"/>
      <point x="514" y="387"/>
      <point x="344" y="408" type="curve"/>
      <point x="349" y="406" type="line"/>
      <point x="424" y="423"/>
      <point x="508" y="469"/>
      <point x="508" y="567" type="curve"/>
      <point x="508" y="663"/>
      <point x="406" y="710"/>
      <point x="316" y="710" type="curve"/>
      <point x="211" y="710"/>
      <point x="114" y="649"/>
    </contour>
    <contour>
      <point x="243" y="406" type="curve"/>
      <point x="186" y="400" type="line"/>
      <point x="188" y="363" type="line"/>
      <point x="289" y="368" type="line" smooth="yes"/>
      <point x="419" y="374"/>
      <point x="494" y="309"/>
      <point x="494" y="199" type="curve"/>
      <point x="494" y="109"/>
      <point x="440" y="35"/>
      <point x="340" y="35" type="curve"/>
      <point x="276" y="35"/>
      <point x="196" y="57"/>
      <point x="196" y="144" type="curve"/>
      <point x="196" y="637" type="line"/>
      <point x="270" y="675"/>
      <point x="405" y="661"/>
      <point x="405" y="546" type="curve"/>
      <point x="405" y="456"/>
      <point x="332" y="415"/>
    </contour>
  </outline>
</glyph>
<glyph name="D" format="1">
  <advance width="740"/>
  <unicode hex="0044"/>
  <outline>
    <contour>
      <point x="47" y="24" type="curve"/>
      <point x="50" y="-10" type="line"/>
      <point x="130" y="31"/>
      <point x="213" y="-10"/>
      <point x="346" y="-10" type="curve"/>
      <point x="536" y="-10"/>
      <point x="700" y="151"/>
      <point x="700" y="361" type="curve"/>
      <point x="700" y="571"/>
      <point x="532" y="710"/>
      <point x="311" y="710" type="curve"/>
      <point x="201" y="710"/>
      <point x="141" y="672"/>
      <point x="49" y="700" type="curve"/>
      <point x="30" y="669" type="line"/>
      <point x="71" y="647"/>
      <point x="83" y="632"/>
      <point x="85" y="590" type="curve"/>
      <point x="95" y="389"/>
      <point x="85" y="155"/>
      <point x="81" y="101" type="curve"/>
      <point x="78" y="62"/>
      <point x="68" y="34"/>
    </contour>
    <contour>
      <point x="349" y="41" type="curve"/>
      <point x="283" y="41"/>
      <point x="246" y="48"/>
      <point x="192" y="59" type="curve"/>
      <point x="182" y="195"/>
      <point x="178" y="492"/>
      <point x="194" y="642" type="curve"/>
      <point x="227" y="654"/>
      <point x="262" y="659"/>
      <point x="322" y="659" type="curve"/>
      <point x="484" y="659"/>
      <point x="583" y="523"/>
      <point x="583" y="351" type="curve"/>
      <point x="583" y="161"/>
      <point x="498" y="41"/>
    </contour>
  </outline>
</glyph>
<glyph name="F" format="1">
  <advance width="447"/>
  <unicode hex="0046"/>
  <outline>
    <contour>
      <point x="293" y="327" type="curve"/>
      <point x="138" y="327" type="line"/>
      <point x="139" y="376" type="line"/>
      <point x="284" y="376" type="line" smooth="yes"/>
      <point x="349" y="376"/>
      <point x="347" y="380"/>
      <point x="357" y="434" type="curve"/>
      <point x="385" y="433" type="line"/>
      <point x="377" y="280" type="line"/>
      <point x="362" y="279" type="line"/>
      <point x="344" y="323"/>
      <point x="332" y="327"/>
    </contour>
    <contour>
      <point x="30" y="674" type="curve"/>
      <point x="30" y="705" type="line"/>
      <point x="157" y="700"/>
      <point x="267" y="699"/>
      <point x="386" y="704" type="curve"/>
      <point x="397" y="574" type="line"/>
      <point x="376" y="572" type="line"/>
      <point x="338" y="649"/>
      <point x="339" y="650"/>
      <point x="294" y="650" type="curve"/>
      <point x="160" y="650" type="line"/>
      <point x="160" y="85" type="line" smooth="yes"/>
      <point x="160" y="47"/>
      <point x="166" y="46"/>
      <point x="257" y="30" type="curve"/>
      <point x="257" y="0" type="line"/>
      <point x="38" y="0" type="line"/>
      <point x="38" y="30" type="line"/>
      <point x="50" y="43"/>
      <point x="54" y="52"/>
      <point x="55" y="82" type="curve"/>
      <point x="61" y="263"/>
      <point x="55" y="430"/>
      <point x="55" y="611" type="curve"/>
      <point x="55" y="647"/>
      <point x="49" y="651"/>
    </contour>
  </outline>
</glyph>
<glyph name="I" format="1">
  <advance width="284"/>
  <unicode hex="0049"/>
  <outline>
    <contour>
      <point x="119" y="400" type="curve"/>
      <point x="114" y="271" type="line"/>
      <point x="114" y="325"/>
      <point x="96" y="332"/>
      <point x="47" y="334" type="curve"/>
      <point x="43" y="350" type="line"/>
      <point x="72" y="365"/>
      <point x="90" y="373"/>
    </contour>
    <contour>
      <point x="113" y="93" type="curve"/>
      <point x="113" y="278"/>
      <point x="117" y="536"/>
      <point x="102" y="629" type="curve"/>
      <point x="12" y="625" type="line"/>
      <point x="10" y="660" type="line"/>
      <point x="136" y="673"/>
      <point x="174" y="684"/>
      <point x="241" y="710" type="curve"/>
      <point x="259" y="684" type="line"/>
      <point x="224" y="652"/>
      <point x="222" y="644"/>
      <point x="220" y="594" type="curve"/>
      <point x="212" y="402"/>
      <point x="215" y="55"/>
      <point x="229" y="35" type="curve"/>
      <point x="229" y="0" type="line"/>
      <point x="177" y="0"/>
      <point x="101" y="-1"/>
      <point x="24" y="-3" type="curve"/>
      <point x="24" y="28" type="line"/>
      <point x="98" y="43"/>
      <point x="113" y="44"/>
    </contour>
  </outline>
</glyph>
<glyph name="J" format="1">
  <advance width="292"/>
  <unicode hex="004A"/>
  <outline>
    <contour>
      <point x="119" y="440" type="curve"/>
      <point x="114" y="311" type="line"/>
      <point x="114" y="365"/>
      <point x="96" y="372"/>
      <point x="47" y="374" type="curve"/>
      <point x="43" y="390" type="line"/>
      <point x="72" y="405"/>
      <point x="90" y="413"/>
    </contour>
    <contour>
      <point x="113" y="93" type="curve"/>
      <point x="113" y="278"/>
      <point x="117" y="536"/>
      <point x="102" y="629" type="curve"/>
      <point x="12" y="625" type="line"/>
      <point x="10" y="660" type="line"/>
      <point x="136" y="673"/>
      <point x="174" y="684"/>
      <point x="241" y="710" type="curve"/>
      <point x="259" y="684" type="line"/>
      <point x="224" y="652"/>
      <point x="222" y="644"/>
      <point x="220" y="594" type="curve"/>
      <point x="212" y="402"/>
      <point x="205" y="55"/>
      <point x="219" y="35" type="curve"/>
      <point x="164" y="-66"/>
      <point x="113" y="-168"/>
      <point x="74" y="-246" type="curve"/>
      <point x="44" y="-221" type="line"/>
      <point x="95" y="-104"/>
      <point x="113" y="44"/>
    </contour>
    <contour>
      <point x="119" y="310" type="curve"/>
      <point x="114" y="181" type="line"/>
      <point x="114" y="235"/>
      <point x="96" y="242"/>
      <point x="47" y="244" type="curve"/>
      <point x="43" y="260" type="line"/>
      <point x="72" y="275"/>
      <point x="90" y="283"/>
    </contour>
  </outline>
</glyph>
<glyph name="K" format="1">
  <advance width="644"/>
  <unicode hex="004B"/>
  <outline>
    <contour>
      <point x="235" y="396" type="curve"/>
      <point x="157" y="340" type="line"/>
      <point x="342" y="145" type="line" smooth="yes"/>
      <point x="399" y="84"/>
      <point x="447" y="49"/>
      <point x="377" y="37" type="curve"/>
      <point x="377" y="-3" type="line"/>
      <point x="435" y="3"/>
      <point x="530" y="2"/>
      <point x="601" y="-3" type="curve"/>
      <point x="600" y="25" type="line"/>
      <point x="559" y="53"/>
      <point x="308" y="322"/>
    </contour>
    <contour>
      <point x="173" y="94" type="curve"/>
      <point x="173" y="371"/>
      <point x="172" y="533"/>
      <point x="176" y="629" type="curve"/>
      <point x="177" y="653"/>
      <point x="204" y="662"/>
      <point x="230" y="667" type="curve"/>
      <point x="230" y="703" type="line"/>
      <point x="155" y="700"/>
      <point x="85" y="700"/>
      <point x="30" y="703" type="curve"/>
      <point x="30" y="667" type="line"/>
      <point x="37" y="663"/>
      <point x="64" y="653"/>
      <point x="65" y="629" type="curve"/>
      <point x="69" y="532"/>
      <point x="71" y="179"/>
      <point x="67" y="94" type="curve"/>
      <point x="65" y="48"/>
      <point x="56" y="52"/>
      <point x="30" y="36" type="curve"/>
      <point x="30" y="-3" type="line"/>
      <point x="58" y="3"/>
      <point x="178" y="3"/>
      <point x="210" y="-3" type="curve"/>
      <point x="210" y="36" type="line"/>
      <point x="174" y="51"/>
      <point x="173" y="53"/>
    </contour>
    <contour>
      <point x="163" y="379" type="line"/>
      <point x="161" y="319" type="line"/>
      <point x="442" y="574" type="line" smooth="yes"/>
      <point x="498" y="625"/>
      <point x="545" y="659"/>
      <point x="576" y="674" type="curve"/>
      <point x="576" y="703" type="line"/>
      <point x="532" y="700"/>
      <point x="470" y="700"/>
      <point x="378" y="703" type="curve"/>
      <point x="378" y="674" type="line"/>
      <point x="440" y="658"/>
      <point x="439" y="646"/>
      <point x="362" y="572" type="curve"/>
    </contour>
  </outline>
</glyph>
<glyph name="M" format="1">
  <advance width="869"/>
  <unicode hex="004D"/>
  <outline>
    <contour>
      <point x="201" y="0" type="line"/>
      <point x="33" y="0" type="line"/>
      <point x="30" y="10" type="line"/>
      <point x="175" y="587" type="line" smooth="yes"/>
      <point x="185" y="626"/>
      <point x="196" y="669"/>
      <point x="201" y="710" type="curve"/>
      <point x="272" y="710" type="line"/>
      <point x="277" y="615"/>
      <point x="364" y="374"/>
      <point x="437" y="185" type="curve"/>
      <point x="568" y="568" type="line" smooth="yes"/>
      <point x="582" y="608"/>
      <point x="599" y="668"/>
      <point x="604" y="700" type="curve"/>
      <point x="674" y="700" type="line"/>
      <point x="709" y="496"/>
      <point x="755" y="223"/>
      <point x="819" y="10" type="curve"/>
      <point x="814" y="0" type="line"/>
      <point x="607" y="0" type="line"/>
      <point x="607" y="35" type="line"/>
      <point x="676" y="54"/>
      <point x="682" y="58"/>
      <point x="671" y="120" type="curve"/>
      <point x="646" y="256"/>
      <point x="626" y="385"/>
      <point x="604" y="520" type="curve"/>
      <point x="543" y="343"/>
      <point x="479" y="171"/>
      <point x="432" y="-5" type="curve"/>
      <point x="376" y="-5" type="line"/>
      <point x="351" y="124"/>
      <point x="273" y="335"/>
      <point x="206" y="516" type="curve"/>
      <point x="114" y="105" type="line" smooth="yes"/>
      <point x="101" y="49"/>
      <point x="99" y="48"/>
      <point x="201" y="35" type="curve"/>
    </contour>
  </outline>
</glyph>
<glyph name="N" format="1">
  <advance width="697"/>
  <unicode hex="004E"/>
  <outline>
    <contour>
      <point x="160" y="97" type="curve"/>
      <point x="157" y="261"/>
      <point x="155" y="454"/>
      <point x="160" y="618" type="curve"/>
      <point x="161" y="650"/>
      <point x="171" y="655"/>
      <point x="193" y="674" type="curve"/>
      <point x="193" y="703" type="line"/>
      <point x="175" y="700"/>
      <point x="96" y="698"/>
      <point x="33" y="703" type="curve"/>
      <point x="30" y="684" type="line"/>
      <point x="52" y="621"/>
      <point x="54" y="545"/>
      <point x="54" y="323" type="curve"/>
      <point x="54" y="144"/>
      <point x="48" y="91"/>
      <point x="36" y="3" type="curve"/>
      <point x="39" y="-3" type="line"/>
      <point x="77" y="4"/>
      <point x="142" y="2"/>
      <point x="238" y="-3" type="curve"/>
      <point x="238" y="37" type="line"/>
      <point x="161" y="46"/>
      <point x="161" y="40"/>
    </contour>
    <contour>
      <point x="528" y="604" type="curve"/>
      <point x="537" y="448"/>
      <point x="537" y="287"/>
      <point x="528" y="121" type="curve"/>
      <point x="524" y="50"/>
      <point x="526" y="51"/>
      <point x="445" y="32" type="curve"/>
      <point x="445" y="-3" type="line"/>
      <point x="525" y="2"/>
      <point x="619" y="7"/>
      <point x="660" y="-4" type="curve"/>
      <point x="667" y="23" type="line"/>
      <point x="635" y="58"/>
      <point x="630" y="63"/>
      <point x="630" y="144" type="curve"/>
      <point x="630" y="455"/>
      <point x="628" y="593"/>
      <point x="645" y="696" type="curve"/>
      <point x="641" y="703" type="line"/>
      <point x="575" y="699"/>
      <point x="511" y="699"/>
      <point x="461" y="703" type="curve"/>
      <point x="461" y="668" type="line"/>
      <point x="514" y="658"/>
      <point x="525" y="656"/>
    </contour>
    <contour>
      <point x="128" y="625" type="curve"/>
      <point x="128" y="555" type="line"/>
      <point x="276" y="442"/>
      <point x="413" y="316"/>
      <point x="557" y="197" type="curve"/>
      <point x="553" y="291" type="line"/>
      <point x="401" y="401"/>
      <point x="288" y="507"/>
    </contour>
  </outline>
</glyph>
<glyph name="Q" format="1">
  <advance width="773"/>
  <unicode hex="0051"/>
  <outline>
    <contour>
      <point x="468" y="11" type="curve"/>
      <point x="250" y="11" type="line"/>
      <point x="412" y="-13"/>
      <point x="551" y="-243"/>
      <point x="754" y="-243" type="curve"/>
      <point x="869" y="-243"/>
      <point x="971" y="-194"/>
      <point x="1115" y="-122" type="curve"/>
      <point x="1116" y="-112" type="line"/>
      <point x="1068" y="-100" type="line"/>
      <point x="974" y="-154"/>
      <point x="885" y="-180"/>
      <point x="796" y="-180" type="curve"/>
      <point x="633" y="-180"/>
      <point x="534" y="-77"/>
    </contour>
    <component base="O"/>
  </outline>
</glyph>
<glyph name="S" format="1">
  <advance width="566"/>
  <unicode hex="0053"/>
  <outline>
    <contour>
      <point x="276" y="710" type="curve"/>
      <point x="355" y="710"/>
      <point x="407" y="694"/>
      <point x="436" y="684" type="curve"/>
      <point x="510" y="708" type="line"/>
      <point x="524" y="694" type="line"/>
      <point x="491" y="657"/>
      <point x="462" y="619"/>
      <point x="435" y="580" type="curve"/>
      <point x="424" y="580" type="line"/>
      <point x="390" y="626"/>
      <point x="335" y="657"/>
      <point x="272" y="657" type="curve"/>
      <point x="182" y="657"/>
      <point x="132" y="607"/>
      <point x="132" y="557" type="curve"/>
      <point x="132" y="493"/>
      <point x="185" y="462"/>
      <point x="319" y="425" type="curve"/>
      <point x="420" y="397"/>
      <point x="541" y="347"/>
      <point x="541" y="213" type="curve"/>
      <point x="541" y="83"/>
      <point x="443" y="-3"/>
      <point x="293" y="-3" type="curve"/>
      <point x="220" y="-3"/>
      <point x="157" y="11"/>
      <point x="119" y="29" type="curve"/>
      <point x="79" y="-9" type="line"/>
      <point x="49" y="0" type="line"/>
      <point x="81" y="56"/>
      <point x="110" y="112"/>
      <point x="136" y="168" type="curve"/>
      <point x="159" y="161" type="line"/>
      <point x="173" y="97"/>
      <point x="246" y="66"/>
      <point x="322" y="66" type="curve"/>
      <point x="404" y="66"/>
      <point x="474" y="100"/>
      <point x="474" y="177" type="curve"/>
      <point x="474" y="250"/>
      <point x="402" y="286"/>
      <point x="273" y="320" type="curve"/>
      <point x="117" y="361"/>
      <point x="35" y="415"/>
      <point x="35" y="528" type="curve"/>
      <point x="35" y="648"/>
      <point x="169" y="710"/>
    </contour>
  </outline>
</glyph>
<glyph name="U" format="1">
  <advance width="723"/>
  <unicode hex="0055"/>
  <outline>
    <contour>
      <point x="10" y="699" type="curve"/>
      <point x="10" y="657" type="line"/>
      <point x="30" y="649"/>
      <point x="41" y="646"/>
      <point x="44" y="565" type="curve"/>
      <point x="47" y="472"/>
      <point x="40" y="260"/>
      <point x="40" y="201" type="curve"/>
      <point x="79" y="81"/>
      <point x="172" y="-10"/>
      <point x="342" y="-10" type="curve"/>
      <point x="529" y="-10"/>
      <point x="637" y="90"/>
      <point x="637" y="290" type="curve"/>
      <point x="637" y="353"/>
      <point x="649" y="527"/>
      <point x="649" y="603" type="curve"/>
      <point x="649" y="653"/>
      <point x="659" y="657"/>
      <point x="698" y="666" type="curve"/>
      <point x="698" y="699" type="line"/>
      <point x="650" y="697"/>
      <point x="518" y="700"/>
      <point x="490" y="700" type="curve"/>
      <point x="490" y="669" type="line"/>
      <point x="536" y="662"/>
      <point x="573" y="651"/>
      <point x="573" y="614" type="curve"/>
      <point x="575" y="258" type="line" smooth="yes"/>
      <point x="576" y="111"/>
      <point x="500" y="45"/>
      <point x="364" y="45" type="curve"/>
      <point x="251" y="45"/>
      <point x="150" y="90"/>
      <point x="150" y="240" type="curve"/>
      <point x="150" y="388"/>
      <point x="153" y="523"/>
      <point x="153" y="609" type="curve"/>
      <point x="153" y="653"/>
      <point x="161" y="663"/>
      <point x="246" y="663" type="curve"/>
      <point x="246" y="700" type="line"/>
      <point x="148" y="696"/>
      <point x="66" y="697"/>
    </contour>
  </outline>
</glyph>
<glyph name="W" format="1">
  <advance width="1030"/>
  <unicode hex="0057"/>
  <outline>
    <contour>
      <point x="5" y="700" type="curve"/>
      <point x="6" y="671" type="line"/>
      <point x="47" y="610"/>
      <point x="323" y="72"/>
      <point x="346" y="-10" type="curve"/>
      <point x="380" y="-10" type="line"/>
      <point x="403" y="93"/>
      <point x="555" y="372"/>
      <point x="607" y="437" type="curve"/>
      <point x="506" y="429" type="line"/>
      <point x="360" y="96" type="line"/>
      <point x="388" y="155" type="line"/>
      <point x="327" y="289"/>
      <point x="237" y="522"/>
      <point x="198" y="608" type="curve"/>
      <point x="181" y="645"/>
      <point x="184" y="653"/>
      <point x="213" y="673" type="curve"/>
      <point x="211" y="700" type="line"/>
      <point x="183" y="700"/>
      <point x="101" y="698"/>
    </contour>
    <contour>
      <point x="372" y="700" type="curve"/>
      <point x="373" y="671" type="line"/>
      <point x="414" y="610"/>
      <point x="675" y="72"/>
      <point x="698" y="-10" type="curve"/>
      <point x="732" y="-10" type="line"/>
      <point x="755" y="93"/>
      <point x="973" y="606"/>
      <point x="1025" y="671" type="curve"/>
      <point x="1025" y="700" type="line"/>
      <point x="976" y="697"/>
      <point x="888" y="699"/>
      <point x="860" y="700" type="curve"/>
      <point x="860" y="665" type="line"/>
      <point x="924" y="663" type="line"/>
      <point x="712" y="96" type="line"/>
      <point x="740" y="155" type="line"/>
      <point x="679" y="289"/>
      <point x="594" y="522"/>
      <point x="555" y="608" type="curve"/>
      <point x="538" y="645"/>
      <point x="541" y="653"/>
      <point x="570" y="673" type="curve"/>
      <point x="568" y="700" type="line"/>
      <point x="540" y="700"/>
      <point x="448" y="698"/>
    </contour>
  </outline>
</glyph>
<glyph name="X" format="1">
  <advance width="763"/>
  <unicode hex="0058"/>
  <outline>
    <contour>
      <point x="420" y="381" type="curve"/>
      <point x="381" y="407" type="line"/>
      <point x="595" y="660" type="line"/>
      <point x="537" y="670" type="line"/>
      <point x="537" y="703" type="line"/>
      <point x="609" y="701"/>
      <point x="657" y="700"/>
      <point x="696" y="703" type="curve"/>
      <point x="696" y="668" type="line"/>
      <point x="634" y="626"/>
      <point x="515" y="479"/>
    </contour>
    <contour>
      <point x="329" y="363" type="curve"/>
      <point x="376" y="341" type="line"/>
      <point x="123" y="46" type="line"/>
      <point x="210" y="37" type="line"/>
      <point x="210" y="-3" type="line"/>
      <point x="138" y="0"/>
      <point x="86" y="0"/>
      <point x="0" y="-3" type="curve"/>
      <point x="0" y="32" type="line"/>
      <point x="64" y="68"/>
      <point x="199" y="225"/>
    </contour>
    <contour>
      <point x="493" y="34" type="line"/>
      <point x="581" y="48" type="line"/>
      <point x="498" y="142"/>
      <point x="58" y="656"/>
      <point x="28" y="667" type="curve"/>
      <point x="28" y="702" type="line"/>
      <point x="93" y="700"/>
      <point x="197" y="700"/>
      <point x="264" y="702" type="curve"/>
      <point x="264" y="667" type="line"/>
      <point x="189" y="662" type="line"/>
      <point x="384" y="452"/>
      <point x="700" y="69"/>
      <point x="763" y="32" type="curve"/>
      <point x="763" y="-3" type="line"/>
      <point x="683" y="-1"/>
      <point x="584" y="0"/>
      <point x="493" y="-3" type="curve"/>
    </contour>
  </outline>
</glyph>
<glyph name="Y" format="1">
  <advance width="615"/>
  <unicode hex="0059"/>
  <outline>
    <contour>
      <point x="461" y="610" type="curve"/>
      <point x="223" y="-333" type="line"/>
      <point x="273" y="-340" type="line"/>
      <point x="338" y="-114"/>
      <point x="510" y="355"/>
      <point x="590" y="623" type="curve"/>
      <point x="601" y="660"/>
      <point x="600" y="660"/>
      <point x="630" y="668" type="curve"/>
      <point x="627" y="700" type="line"/>
      <point x="513" y="699"/>
      <point x="444" y="698"/>
      <point x="363" y="700" type="curve"/>
      <point x="363" y="665" type="line"/>
      <point x="469" y="655"/>
      <point x="473" y="657"/>
    </contour>
    <contour>
      <point x="324" y="10" type="curve"/>
      <point x="346" y="125" type="line"/>
      <point x="166" y="581" type="line" smooth="yes"/>
      <point x="136" y="657"/>
      <point x="148" y="650"/>
      <point x="270" y="667" type="curve"/>
      <point x="270" y="700" type="line"/>
      <point x="202" y="696"/>
      <point x="138" y="696"/>
      <point x="26" y="700" type="curve"/>
      <point x="26" y="670" type="line"/>
      <point x="74" y="652"/>
      <point x="260" y="168"/>
    </contour>
  </outline>
</glyph>
<glyph name="Z" format="1">
  <advance width="676"/>
  <unicode hex="005A"/>
  <outline>
    <contour>
      <point x="21" y="20" type="curve"/>
      <point x="38" y="-5" type="line"/>
      <point x="121" y="35"/>
      <point x="201" y="28"/>
      <point x="546" y="-10" type="curve"/>
      <point x="582" y="29"/>
      <point x="618" y="70"/>
      <point x="654" y="131" type="curve"/>
      <point x="634" y="146" type="line"/>
      <point x="545" y="73"/>
      <point x="334" y="106"/>
      <point x="182" y="104" type="curve"/>
      <point x="194" y="88" type="line"/>
      <point x="284" y="215"/>
      <point x="419" y="435"/>
      <point x="526" y="575" type="curve"/>
      <point x="565" y="626"/>
      <point x="611" y="664"/>
      <point x="656" y="687" type="curve"/>
      <point x="641" y="720" type="line"/>
      <point x="585" y="696"/>
      <point x="542" y="689"/>
      <point x="484" y="689" type="curve"/>
      <point x="458" y="689"/>
      <point x="238" y="704"/>
      <point x="116" y="710" type="curve"/>
      <point x="88" y="675"/>
      <point x="50" y="624"/>
      <point x="20" y="568" type="curve"/>
      <point x="49" y="551" type="line"/>
      <point x="66" y="595"/>
      <point x="84" y="592"/>
      <point x="98" y="597" type="curve"/>
      <point x="168" y="618"/>
      <point x="359" y="609"/>
      <point x="485" y="592" type="curve"/>
      <point x="469" y="609" type="line"/>
      <point x="392" y="492"/>
      <point x="265" y="274"/>
      <point x="151" y="134" type="curve"/>
      <point x="124" y="101"/>
      <point x="71" y="56"/>
    </contour>
  </outline>
</glyph>
<glyph name="a" format="1">
  <advance width="368"/>
  <unicode hex="0061"/>
  <outline>
    <contour>
      <point x="41" y="333" type="curve"/>
      <point x="34" y="358" type="line"/>
      <point x="58" y="379"/>
      <point x="156" y="432"/>
      <point x="196" y="440" type="curve"/>
      <point x="260" y="440"/>
      <point x="322" y="418"/>
      <point x="322" y="341" type="curve"/>
      <point x="323" y="116" type="line" smooth="yes"/>
      <point x="323" y="88"/>
      <point x="322" y="88"/>
      <point x="358" y="64" type="curve"/>
      <point x="358" y="44" type="line"/>
      <point x="245" y="-13" type="line"/>
      <point x="232" y="-9" type="line"/>
      <point x="221" y="89" type="line"/>
      <point x="221" y="101"/>
      <point x="224" y="274"/>
      <point x="224" y="284" type="curve"/>
      <point x="223" y="316"/>
      <point x="224" y="360"/>
      <point x="161" y="360" type="curve"/>
      <point x="124" y="360"/>
      <point x="75" y="341"/>
    </contour>
    <contour>
      <point x="239" y="292" type="curve"/>
      <point x="239" y="249" type="line"/>
      <point x="171" y="221"/>
      <point x="100" y="178"/>
      <point x="100" y="141" type="curve"/>
      <point x="100" y="112"/>
      <point x="127" y="99"/>
      <point x="153" y="99" type="curve"/>
      <point x="179" y="99"/>
      <point x="214" y="123"/>
      <point x="253" y="168" type="curve"/>
      <point x="253" y="121" type="line"/>
      <point x="210" y="89"/>
      <point x="133" y="-8"/>
      <point x="85" y="-8" type="curve"/>
      <point x="13" y="-8"/>
      <point x="6" y="104"/>
      <point x="11" y="135" type="curve"/>
      <point x="44" y="188"/>
      <point x="157" y="249"/>
    </contour>
  </outline>
</glyph>
<glyph name="b" format="1">
  <advance width="445"/>
  <unicode hex="0062"/>
  <outline>
    <contour>
      <point x="114" y="368" type="curve"/>
      <point x="115" y="327" type="line"/>
      <point x="126" y="335"/>
      <point x="151" y="351"/>
      <point x="203" y="351" type="curve"/>
      <point x="283" y="351"/>
      <point x="342" y="285"/>
      <point x="342" y="191" type="curve"/>
      <point x="342" y="140"/>
      <point x="327" y="100"/>
      <point x="292" y="74" type="curve"/>
      <point x="153" y="70"/>
      <point x="124" y="166"/>
      <point x="124" y="264" type="curve"/>
      <point x="124" y="448"/>
      <point x="127" y="535"/>
      <point x="137" y="638" type="curve"/>
      <point x="140" y="666"/>
      <point x="144" y="667"/>
      <point x="168" y="692" type="curve"/>
      <point x="165" y="710" type="line"/>
      <point x="30" y="691" type="line"/>
      <point x="30" y="561"/>
      <point x="32" y="373"/>
      <point x="32" y="222" type="curve"/>
      <point x="32" y="65"/>
      <point x="86" y="11"/>
      <point x="197" y="-10" type="curve"/>
      <point x="275" y="-9"/>
      <point x="425" y="107"/>
      <point x="425" y="237" type="curve"/>
      <point x="425" y="349"/>
      <point x="368" y="422"/>
      <point x="261" y="441" type="curve"/>
      <point x="225" y="431"/>
      <point x="146" y="390"/>
    </contour>
  </outline>
</glyph>
<glyph name="e" format="1">
  <advance width="332"/>
  <unicode hex="0065"/>
  <outline>
    <contour>
      <point x="15" y="172" type="curve"/>
      <point x="15" y="241"/>
      <point x="29" y="299"/>
      <point x="46" y="340" type="curve"/>
      <point x="75" y="374"/>
      <point x="156" y="430"/>
      <point x="172" y="440" type="curve"/>
      <point x="211" y="430"/>
      <point x="270" y="386"/>
      <point x="294" y="367" type="curve"/>
      <point x="317" y="382" type="line"/>
      <point x="327" y="347" type="line"/>
      <point x="251" y="291"/>
      <point x="158" y="208"/>
      <point x="99" y="152" type="curve"/>
      <point x="88" y="183" type="line"/>
      <point x="191" y="283" type="line"/>
      <point x="186" y="309"/>
      <point x="156" y="340"/>
      <point x="124" y="340" type="curve"/>
      <point x="114" y="331"/>
      <point x="105" y="303"/>
      <point x="105" y="250" type="curve"/>
      <point x="105" y="135"/>
      <point x="135" y="62"/>
      <point x="244" y="62" type="curve"/>
      <point x="272" y="62"/>
      <point x="295" y="69"/>
      <point x="319" y="73" type="curve"/>
      <point x="322" y="43" type="line"/>
      <point x="236" y="8"/>
      <point x="172" y="-10"/>
      <point x="91" y="-10" type="curve"/>
      <point x="51" y="6"/>
      <point x="15" y="89"/>
    </contour>
  </outline>
</glyph>
<glyph name="g" format="1">
  <advance width="435"/>
  <unicode hex="0067"/>
  <outline>
    <contour>
      <point x="240" y="146" type="curve"/>
      <point x="120" y="138"/>
      <point x="56" y="262"/>
      <point x="118" y="358" type="curve"/>
      <point x="231" y="362"/>
      <point x="280" y="245"/>
    </contour>
    <contour>
      <point x="21" y="242" type="curve"/>
      <point x="21" y="121"/>
      <point x="93" y="56"/>
      <point x="189" y="55" type="curve"/>
      <point x="242" y="90"/>
      <point x="301" y="143"/>
      <point x="332" y="201" type="curve"/>
      <point x="342" y="244"/>
      <point x="343" y="290"/>
      <point x="334" y="339" type="curve"/>
      <point x="356" y="340"/>
      <point x="374" y="339"/>
      <point x="396" y="338" type="curve"/>
      <point x="434" y="399" type="line"/>
      <point x="430" y="408" type="line"/>
      <point x="314" y="407" type="line"/>
      <point x="292" y="410"/>
      <point x="259" y="440"/>
      <point x="194" y="440" type="curve"/>
      <point x="78" y="440"/>
      <point x="21" y="315"/>
    </contour>
    <contour>
      <point x="145" y="59" type="curve"/>
      <point x="178" y="55" type="line"/>
      <point x="110" y="84" type="line"/>
      <point x="93" y="51"/>
      <point x="32" y="12"/>
      <point x="21" y="-2" type="curve"/>
      <point x="21" y="-70"/>
      <point x="87" y="-105"/>
      <point x="132" y="-127" type="curve"/>
      <point x="278" y="-128"/>
      <point x="383" y="-143"/>
      <point x="374" y="-223" type="curve"/>
      <point x="358" y="-244"/>
      <point x="317" y="-250"/>
      <point x="281" y="-250" type="curve"/>
      <point x="158" y="-250"/>
      <point x="116" y="-192"/>
      <point x="114" y="-161" type="curve"/>
      <point x="112" y="-134"/>
      <point x="141" y="-127"/>
      <point x="151" y="-120" type="curve"/>
      <point x="128" y="-87" type="line"/>
      <point x="87" y="-140"/>
      <point x="47" y="-164"/>
      <point x="22" y="-189" type="curve"/>
      <point x="22" y="-271"/>
      <point x="103" y="-330"/>
      <point x="225" y="-330" type="curve"/>
      <point x="284" y="-330"/>
      <point x="392" y="-253"/>
      <point x="422" y="-210" type="curve"/>
      <point x="469" y="-87"/>
      <point x="383" y="-40"/>
      <point x="253" y="-33" type="curve"/>
      <point x="152" y="-28"/>
      <point x="111" y="-2"/>
      <point x="111" y="27" type="curve"/>
      <point x="111" y="40"/>
      <point x="131" y="52"/>
    </contour>
  </outline>
</glyph>
<glyph name="h" format="1">
  <advance width="425"/>
  <unicode hex="0068"/>
  <outline>
    <contour>
      <point x="119" y="343" type="curve"/>
      <point x="120" y="381" type="line"/>
      <point x="171" y="405"/>
      <point x="204" y="424"/>
      <point x="251" y="440" type="curve"/>
      <point x="332" y="427"/>
      <point x="405" y="338"/>
      <point x="405" y="232" type="curve"/>
      <point x="405" y="109"/>
      <point x="331" y="44"/>
      <point x="234" y="-10" type="curve"/>
      <point x="219" y="29" type="line"/>
      <point x="284" y="54"/>
      <point x="318" y="103"/>
      <point x="318" y="182" type="curve"/>
      <point x="318" y="291"/>
      <point x="233" y="375"/>
    </contour>
    <contour>
      <point x="137" y="643" type="curve"/>
      <point x="130" y="499"/>
      <point x="99" y="73"/>
      <point x="162" y="31" type="curve"/>
      <point x="162" y="10" type="line"/>
      <point x="117" y="0"/>
      <point x="74" y="-6"/>
      <point x="39" y="-20" type="curve"/>
      <point x="34" y="-10" type="line"/>
      <point x="45" y="64"/>
      <point x="33" y="527"/>
      <point x="30" y="698" type="curve"/>
      <point x="165" y="710" type="line"/>
      <point x="168" y="686" type="line"/>
      <point x="144" y="668"/>
      <point x="138" y="664"/>
    </contour>
  </outline>
</glyph>
<glyph name="i" format="1">
  <advance width="206"/>
  <unicode hex="0069"/>
  <outline>
    <contour>
      <point x="190" y="48" type="curve"/>
      <point x="190" y="74" type="line"/>
      <point x="151" y="84"/>
      <point x="154" y="86"/>
      <point x="148" y="154" type="curve"/>
      <point x="142" y="220"/>
      <point x="137" y="376"/>
      <point x="163" y="427" type="curve"/>
      <point x="153" y="451" type="line"/>
      <point x="119" y="438"/>
      <point x="64" y="425"/>
      <point x="30" y="416" type="curve"/>
      <point x="30" y="393" type="line"/>
      <point x="65" y="318"/>
      <point x="47" y="199"/>
      <point x="44" y="47" type="curve"/>
      <point x="44" y="28"/>
      <point x="70" y="0"/>
      <point x="100" y="-10" type="curve"/>
      <point x="128" y="11"/>
      <point x="148" y="25"/>
    </contour>
    <contour>
      <point x="134" y="628" type="line"/>
      <point x="78" y="500" type="line"/>
      <point x="109" y="502" type="line"/>
      <point x="196" y="619" type="line"/>
      <point x="196" y="627" type="line"/>
    </contour>
  </outline>
</glyph>
<glyph name="j" format="1">
  <advance width="196"/>
  <unicode hex="006A"/>
  <outline>
    <contour>
      <point x="19" y="-179" type="curve"/>
      <point x="50" y="-192" type="line"/>
      <point x="101" y="-74"/>
      <point x="163" y="22"/>
      <point x="163" y="48" type="curve"/>
      <point x="154" y="160"/>
      <point x="145" y="365"/>
      <point x="165" y="419" type="curve"/>
      <point x="148" y="440" type="line"/>
      <point x="114" y="422"/>
      <point x="49" y="408"/>
      <point x="15" y="396" type="curve"/>
      <point x="15" y="370" type="line"/>
      <point x="57" y="362"/>
      <point x="63" y="344"/>
      <point x="63" y="298" type="curve"/>
      <point x="63" y="183"/>
      <point x="63" y="78"/>
      <point x="63" y="47" type="curve"/>
      <point x="63" y="-22"/>
      <point x="49" y="-98"/>
    </contour>
    <contour>
      <point x="114" y="628" type="line"/>
      <point x="48" y="500" type="line"/>
      <point x="79" y="502" type="line"/>
      <point x="176" y="619" type="line"/>
      <point x="176" y="627" type="line"/>
    </contour>
  </outline>
</glyph>
<glyph name="k" format="1">
  <advance width="400"/>
  <unicode hex="006B"/>
  <outline>
    <contour>
      <point x="114" y="345" type="curve"/>
      <point x="108" y="371" type="line"/>
      <point x="140" y="397"/>
      <point x="248" y="434"/>
      <point x="274" y="444" type="curve"/>
      <point x="339" y="384"/>
      <point x="350" y="318"/>
      <point x="358" y="289" type="curve"/>
      <point x="111" y="159" type="line"/>
      <point x="102" y="186" type="line"/>
      <point x="177" y="220"/>
      <point x="243" y="252"/>
      <point x="243" y="300" type="curve"/>
      <point x="243" y="365"/>
      <point x="172" y="380"/>
    </contour>
    <contour>
      <point x="112" y="172" type="curve"/>
      <point x="227" y="239" type="line"/>
      <point x="312" y="143"/>
      <point x="380" y="67"/>
      <point x="411" y="85" type="curve"/>
      <point x="420" y="56" type="line"/>
      <point x="305" y="-14" type="line"/>
      <point x="274" y="38"/>
      <point x="217" y="158"/>
    </contour>
    <contour>
      <point x="135" y="643" type="curve"/>
      <point x="120" y="355"/>
      <point x="119" y="56"/>
      <point x="136" y="11" type="curve"/>
      <point x="111" y="1"/>
      <point x="74" y="4"/>
      <point x="29" y="-10" type="curve"/>
      <point x="24" y="0" type="line"/>
      <point x="45" y="74"/>
      <point x="33" y="527"/>
      <point x="20" y="698" type="curve"/>
      <point x="163" y="710" type="line"/>
      <point x="166" y="686" type="line"/>
      <point x="142" y="668"/>
      <point x="136" y="664"/>
    </contour>
  </outline>
</glyph>
<glyph name="l" format="1">
  <advance width="197"/>
  <unicode hex="006C"/>
  <outline>
    <contour>
      <point x="131" y="172" type="curve"/>
      <point x="122" y="313"/>
      <point x="128" y="501"/>
      <point x="134" y="642" type="curve"/>
      <point x="135" y="664"/>
      <point x="148" y="666"/>
      <point x="180" y="676" type="curve"/>
      <point x="180" y="704" type="line"/>
      <point x="25" y="700" type="line"/>
      <point x="25" y="693" type="line"/>
      <point x="31" y="541"/>
      <point x="35" y="252"/>
      <point x="29" y="95" type="curve"/>
      <point x="27" y="47"/>
      <point x="56" y="14"/>
      <point x="106" y="-10" type="curve"/>
      <point x="186" y="58" type="line"/>
      <point x="187" y="83" type="line"/>
      <point x="131" y="92"/>
      <point x="135" y="106"/>
    </contour>
  </outline>
</glyph>
<glyph name="m" format="1">
  <advance width="648"/>
  <unicode hex="006D"/>
  <outline>
    <contour>
      <point x="156" y="326" type="curve"/>
      <point x="156" y="110" type="line"/>
      <point x="156" y="73"/>
      <point x="166" y="58"/>
      <point x="203" y="50" type="curve"/>
      <point x="203" y="21" type="line"/>
      <point x="153" y="15"/>
      <point x="104" y="4"/>
      <point x="54" y="-10" type="curve"/>
      <point x="48" y="-5" type="line"/>
      <point x="50" y="15"/>
      <point x="56" y="74"/>
      <point x="56" y="161" type="curve"/>
      <point x="56" y="308" type="line" smooth="yes"/>
      <point x="56" y="348"/>
      <point x="40" y="364"/>
      <point x="10" y="368" type="curve"/>
      <point x="10" y="395" type="line"/>
      <point x="149" y="442" type="line"/>
      <point x="162" y="432" type="line"/>
      <point x="162" y="415"/>
      <point x="156" y="378"/>
    </contour>
    <contour>
      <point x="272" y="-10" type="curve"/>
      <point x="266" y="-5" type="line"/>
      <point x="275" y="56"/>
      <point x="278" y="133"/>
      <point x="278" y="252" type="curve"/>
      <point x="278" y="321"/>
      <point x="242" y="340"/>
      <point x="202" y="340" type="curve"/>
      <point x="170" y="340"/>
      <point x="154" y="322"/>
      <point x="137" y="303" type="curve"/>
      <point x="123" y="339" type="line"/>
      <point x="177" y="381"/>
      <point x="271" y="428"/>
      <point x="296" y="440" type="curve"/>
      <point x="321" y="440"/>
      <point x="378" y="394"/>
      <point x="378" y="350" type="curve"/>
      <point x="378" y="101" type="line" smooth="yes"/>
      <point x="378" y="64"/>
      <point x="384" y="55"/>
      <point x="421" y="47" type="curve"/>
      <point x="421" y="21" type="line"/>
      <point x="371" y="15"/>
      <point x="322" y="4"/>
    </contour>
    <contour>
      <point x="489" y="-10" type="curve"/>
      <point x="483" y="-5" type="line"/>
      <point x="495" y="96"/>
      <point x="495" y="155"/>
      <point x="495" y="214" type="curve"/>
      <point x="495" y="303"/>
      <point x="464" y="340"/>
      <point x="418" y="340" type="curve"/>
      <point x="386" y="340"/>
      <point x="371" y="322"/>
      <point x="354" y="303" type="curve"/>
      <point x="340" y="339" type="line"/>
      <point x="394" y="381"/>
      <point x="487" y="433"/>
      <point x="513" y="440" type="curve"/>
      <point x="538" y="440"/>
      <point x="595" y="403"/>
      <point x="595" y="359" type="curve"/>
      <point x="595" y="99" type="line" smooth="yes"/>
      <point x="595" y="62"/>
      <point x="601" y="53"/>
      <point x="638" y="45" type="curve"/>
      <point x="638" y="21" type="line"/>
      <point x="588" y="15"/>
      <point x="539" y="4"/>
    </contour>
  </outline>
</glyph>
<glyph name="q" format="1">
  <advance width="440"/>
  <unicode hex="0071"/>
  <outline>
    <contour>
      <point x="185" y="-10" type="curve"/>
      <point x="314" y="43" type="line"/>
      <point x="315" y="79" type="line"/>
      <point x="191" y="65"/>
      <point x="107" y="124"/>
      <point x="107" y="261" type="curve"/>
      <point x="107" y="317"/>
      <point x="139" y="361"/>
      <point x="190" y="361" type="curve"/>
      <point x="241" y="361"/>
      <point x="307" y="334"/>
      <point x="307" y="193" type="curve"/>
      <point x="307" y="69"/>
      <point x="298" y="-157"/>
      <point x="287" y="-340" type="curve"/>
      <point x="410" y="-308" type="line"/>
      <point x="399" y="-121"/>
      <point x="386" y="384"/>
      <point x="414" y="452" type="curve"/>
      <point x="395" y="460" type="line"/>
      <point x="361" y="423" type="line"/>
      <point x="334" y="432"/>
      <point x="293" y="440"/>
      <point x="249" y="440" type="curve"/>
      <point x="139" y="440"/>
      <point x="20" y="300"/>
      <point x="20" y="191" type="curve"/>
      <point x="20" y="74"/>
      <point x="78" y="10"/>
    </contour>
  </outline>
</glyph>
<glyph name="r" format="1">
  <advance width="324"/>
  <unicode hex="0072"/>
  <outline>
    <contour>
      <point x="159" y="327" type="curve"/>
      <point x="153" y="340" type="line"/>
      <point x="153" y="430" type="line"/>
      <point x="146" y="440" type="line"/>
      <point x="15" y="376" type="line"/>
      <point x="15" y="348" type="line"/>
      <point x="48" y="335"/>
      <point x="61" y="317"/>
      <point x="61" y="279" type="curve"/>
      <point x="61" y="204"/>
      <point x="60" y="83"/>
      <point x="55" y="-5" type="curve"/>
      <point x="167" y="11" type="line"/>
      <point x="161" y="89"/>
      <point x="159" y="227"/>
    </contour>
    <contour>
      <point x="128" y="349" type="curve"/>
      <point x="135" y="300" type="line"/>
      <point x="139" y="315"/>
      <point x="161" y="332"/>
      <point x="180" y="332" type="curve"/>
      <point x="204" y="332"/>
      <point x="238" y="299"/>
      <point x="261" y="274" type="curve"/>
      <point x="344" y="367" type="line"/>
      <point x="318" y="396"/>
      <point x="285" y="424"/>
      <point x="259" y="440" type="curve"/>
      <point x="255" y="440" type="line"/>
      <point x="223" y="404"/>
      <point x="180" y="375"/>
    </contour>
  </outline>
</glyph>
<glyph name="s" format="1">
  <advance width="377"/>
  <unicode hex="0073"/>
  <outline>
    <contour>
      <point x="204" y="440" type="curve"/>
      <point x="142" y="440"/>
      <point x="20" y="366"/>
      <point x="20" y="296" type="curve"/>
      <point x="20" y="235"/>
      <point x="61" y="213"/>
      <point x="142" y="194" type="curve"/>
      <point x="213" y="177"/>
      <point x="270" y="153"/>
      <point x="270" y="110" type="curve"/>
      <point x="270" y="63"/>
      <point x="236" y="50"/>
      <point x="206" y="50" type="curve"/>
      <point x="156" y="50"/>
      <point x="101" y="73"/>
      <point x="94" y="109" type="curve"/>
      <point x="67" y="114" type="line"/>
      <point x="21" y="21" type="line"/>
      <point x="64" y="5"/>
      <point x="111" y="-10"/>
      <point x="178" y="-10" type="curve"/>
      <point x="257" y="-10"/>
      <point x="357" y="73"/>
      <point x="357" y="151" type="curve"/>
      <point x="357" y="244"/>
      <point x="281" y="269"/>
      <point x="202" y="280" type="curve"/>
      <point x="153" y="287"/>
      <point x="95" y="302"/>
      <point x="95" y="337" type="curve"/>
      <point x="95" y="362"/>
      <point x="122" y="372"/>
      <point x="147" y="372" type="curve"/>
      <point x="178" y="372"/>
      <point x="209" y="354"/>
      <point x="224" y="333" type="curve"/>
      <point x="233" y="333" type="line"/>
      <point x="312" y="393" type="line"/>
      <point x="312" y="401" type="line"/>
      <point x="298" y="416"/>
      <point x="251" y="440"/>
    </contour>
  </outline>
</glyph>
<glyph name="u" format="1">
  <advance width="443"/>
  <unicode hex="0075"/>
  <outline>
    <contour>
      <point x="24" y="392" type="curve"/>
      <point x="24" y="419" type="line"/>
      <point x="160" y="434" type="line"/>
      <point x="165" y="425" type="line"/>
      <point x="151" y="367"/>
      <point x="157" y="237"/>
      <point x="157" y="166" type="curve"/>
      <point x="157" y="106"/>
      <point x="193" y="85"/>
      <point x="238" y="85" type="curve"/>
      <point x="263" y="85"/>
      <point x="303" y="102"/>
      <point x="333" y="129" type="curve"/>
      <point x="333" y="83" type="line"/>
      <point x="273" y="56"/>
      <point x="216" y="12"/>
      <point x="156" y="-10" type="curve"/>
      <point x="94" y="10"/>
      <point x="68" y="44"/>
      <point x="57" y="88" type="curve"/>
      <point x="57" y="132"/>
      <point x="57" y="317"/>
      <point x="57" y="338" type="curve"/>
      <point x="57" y="374"/>
      <point x="56" y="377"/>
    </contour>
    <contour>
      <point x="285" y="71" type="curve"/>
      <point x="285" y="108"/>
      <point x="285" y="225"/>
      <point x="285" y="316" type="curve"/>
      <point x="285" y="366"/>
      <point x="280" y="369"/>
      <point x="240" y="382" type="curve"/>
      <point x="240" y="409" type="line"/>
      <point x="387" y="434" type="line"/>
      <point x="392" y="425" type="line"/>
      <point x="383" y="341"/>
      <point x="385" y="192"/>
      <point x="385" y="141" type="curve"/>
      <point x="385" y="100"/>
      <point x="386" y="92"/>
      <point x="422" y="74" type="curve"/>
      <point x="422" y="49" type="line"/>
      <point x="323" y="-15" type="line"/>
      <point x="305" y="6"/>
      <point x="285" y="34"/>
    </contour>
  </outline>
</glyph>
<glyph name="v" format="1">
  <advance width="468"/>
  <unicode hex="0076"/>
  <outline>
    <contour>
      <point x="205" y="430" type="line"/>
      <point x="2" y="430" type="line"/>
      <point x="0" y="403" type="line"/>
      <point x="40" y="351"/>
      <point x="193" y="55"/>
      <point x="207" y="-10" type="curve"/>
      <point x="245" y="-10" type="line"/>
      <point x="282" y="98"/>
      <point x="419" y="351"/>
      <point x="458" y="411" type="curve"/>
      <point x="457" y="430" type="line"/>
      <point x="303" y="430" type="line"/>
      <point x="303" y="395" type="line"/>
      <point x="342" y="383"/>
      <point x="345" y="370"/>
      <point x="324" y="312" type="curve"/>
      <point x="238" y="73" type="line"/>
      <point x="258" y="73" type="line"/>
      <point x="185" y="277" type="line" smooth="yes"/>
      <point x="156" y="358"/>
      <point x="153" y="376"/>
      <point x="205" y="395" type="curve"/>
    </contour>
  </outline>
</glyph>
<glyph name="w" format="1">
  <advance width="706"/>
  <unicode hex="0077"/>
  <outline>
    <contour>
      <point x="195" y="430" type="line"/>
      <point x="2" y="430" type="line"/>
      <point x="0" y="403" type="line"/>
      <point x="40" y="351"/>
      <point x="194" y="55"/>
      <point x="208" y="-10" type="curve"/>
      <point x="246" y="-10" type="line"/>
      <point x="283" y="98"/>
      <point x="365" y="233"/>
      <point x="404" y="293" type="curve"/>
      <point x="332" y="312" type="line"/>
      <point x="239" y="73" type="line"/>
      <point x="259" y="73" type="line"/>
      <point x="185" y="277" type="line" smooth="yes"/>
      <point x="156" y="358"/>
      <point x="153" y="376"/>
      <point x="195" y="395" type="curve"/>
    </contour>
    <contour>
      <point x="463" y="430" type="line"/>
      <point x="260" y="430" type="line"/>
      <point x="258" y="403" type="line"/>
      <point x="298" y="351"/>
      <point x="441" y="55"/>
      <point x="455" y="-10" type="curve"/>
      <point x="493" y="-10" type="line"/>
      <point x="530" y="98"/>
      <point x="667" y="351"/>
      <point x="706" y="411" type="curve"/>
      <point x="705" y="430" type="line"/>
      <point x="551" y="430" type="line"/>
      <point x="551" y="395" type="line"/>
      <point x="590" y="383"/>
      <point x="593" y="370"/>
      <point x="572" y="312" type="curve"/>
      <point x="486" y="73" type="line"/>
      <point x="506" y="73" type="line"/>
      <point x="443" y="277" type="line" smooth="yes"/>
      <point x="418" y="359"/>
      <point x="411" y="376"/>
      <point x="463" y="395" type="curve"/>
    </contour>
  </outline>
</glyph>
<glyph name="x" format="1">
  <advance width="500"/>
  <unicode hex="0078"/>
  <outline>
    <contour>
      <point x="27" y="348" type="curve"/>
      <point x="27" y="373" type="line"/>
      <point x="114" y="440" type="line"/>
      <point x="224" y="370"/>
      <point x="292" y="124"/>
      <point x="383" y="124" type="curve"/>
      <point x="422" y="124"/>
      <point x="443" y="142"/>
      <point x="480" y="164" type="curve"/>
      <point x="501" y="140" type="line"/>
      <point x="444" y="80"/>
      <point x="353" y="-10"/>
      <point x="327" y="-10" type="curve"/>
      <point x="273" y="18"/>
      <point x="129" y="333"/>
    </contour>
    <contour>
      <point x="231" y="206" type="curve"/>
      <point x="203" y="243" type="line"/>
      <point x="271" y="381"/>
      <point x="316" y="443"/>
      <point x="405" y="443" type="curve"/>
      <point x="454" y="443"/>
      <point x="482" y="402"/>
      <point x="489" y="386" type="curve"/>
      <point x="458" y="293" type="line"/>
      <point x="441" y="290" type="line"/>
      <point x="430" y="309"/>
      <point x="400" y="325"/>
      <point x="372" y="325" type="curve"/>
      <point x="304" y="325"/>
      <point x="264" y="287"/>
    </contour>
    <contour>
      <point x="188" y="233" type="curve"/>
      <point x="219" y="186" type="line"/>
      <point x="171" y="129"/>
      <point x="95" y="41"/>
      <point x="25" y="-10" type="curve"/>
      <point x="15" y="-5" type="line"/>
      <point x="16" y="35" type="line"/>
      <point x="81" y="72"/>
      <point x="135" y="147"/>
    </contour>
  </outline>
</glyph>
<glyph name="y" format="1">
  <advance width="446"/>
  <unicode hex="0079"/>
  <outline>
    <contour>
      <point x="297" y="270" type="curve"/>
      <point x="236" y="71"/>
      <point x="163" y="-139"/>
      <point x="73" y="-318" type="curve"/>
      <point x="118" y="-340" type="line"/>
      <point x="232" y="-88"/>
      <point x="400" y="357"/>
      <point x="441" y="415" type="curve"/>
      <point x="436" y="435" type="line"/>
      <point x="379" y="428"/>
      <point x="323" y="428"/>
      <point x="268" y="430" type="curve"/>
      <point x="268" y="395" type="line"/>
      <point x="328" y="375"/>
      <point x="329" y="376"/>
    </contour>
    <contour>
      <point x="219" y="-39" type="curve"/>
      <point x="262" y="48" type="line"/>
      <point x="176" y="303" type="line" smooth="yes"/>
      <point x="148" y="385"/>
      <point x="148" y="384"/>
      <point x="204" y="395" type="curve"/>
      <point x="204" y="430" type="line"/>
      <point x="163" y="429"/>
      <point x="64" y="431"/>
      <point x="5" y="435" type="curve"/>
      <point x="5" y="413" type="line"/>
      <point x="69" y="301"/>
      <point x="135" y="153"/>
    </contour>
  </outline>
</glyph>
<glyph name="z" format="1">
  <advance width="294"/>
  <unicode hex="007A"/>
  <outline>
    <contour>
      <point x="26" y="343" type="curve"/>
      <point x="19" y="371" type="line"/>
      <point x="182" y="440" type="line"/>
      <point x="237" y="421"/>
      <point x="287" y="384"/>
      <point x="287" y="338" type="curve"/>
      <point x="287" y="274"/>
      <point x="224" y="215"/>
      <point x="178" y="166" type="curve"/>
      <point x="262" y="119"/>
      <point x="289" y="76"/>
      <point x="289" y="6" type="curve"/>
      <point x="289" y="-89"/>
      <point x="195" y="-219"/>
      <point x="42" y="-340" type="curve"/>
      <point x="21" y="-309" type="line"/>
      <point x="97" y="-244"/>
      <point x="194" y="-162"/>
      <point x="194" y="-43" type="curve"/>
      <point x="194" y="24"/>
      <point x="166" y="68"/>
      <point x="59" y="87" type="curve"/>
      <point x="53" y="111" type="line"/>
      <point x="134" y="159"/>
      <point x="179" y="221"/>
      <point x="179" y="258" type="curve"/>
      <point x="179" y="324"/>
      <point x="116" y="349"/>
    </contour>
  </outline>
</glyph>
<glyph name="e_macr" format="1">
  <advance width="348"/>
  <unicode hex="0113"/>
  <outline>
    <contour>
      <point x="162" y="612" type="curve"/>
      <point x="122" y="575"/>
      <point x="94" y="539"/>
      <point x="67" y="497" type="curve"/>
      <point x="97" y="485" type="line"/>
      <point x="144" y="529"/>
      <point x="185" y="514"/>
      <point x="257" y="514" type="curve"/>
      <point x="275" y="531"/>
      <point x="307" y="569"/>
      <point x="343" y="613" type="curve"/>
      <point x="315" y="624" type="line"/>
      <point x="277" y="603"/>
      <point x="241" y="606"/>
    </contour>
    <component base="e"/>
    <contour>
      <point x="184" y="430" type="move" name="_top"/>
    </contour>
    <contour>
      <point x="184" y="672" type="move" name="top"/>
    </contour>
  </outline>
</glyph>
<glyph name="i_macr" format="1">
  <advance width="239"/>
  <unicode hex="012B"/>
  <outline>
    <contour>
      <point x="82" y="599" type="curve"/>
      <point x="55" y="565"/>
      <point x="40" y="543"/>
      <point x="7" y="501" type="curve"/>
      <point x="23" y="484" type="line"/>
      <point x="41" y="504"/>
      <point x="59" y="519"/>
      <point x="80" y="519" type="curve"/>
      <point x="99" y="519"/>
      <point x="128" y="513"/>
      <point x="152" y="506" type="curve"/>
      <point x="181" y="547"/>
      <point x="206" y="588"/>
      <point x="229" y="629" type="curve"/>
      <point x="209" y="652" type="line"/>
      <point x="199" y="623"/>
      <point x="171" y="585"/>
      <point x="142" y="585" type="curve"/>
      <point x="116" y="585"/>
      <point x="108" y="589"/>
    </contour>
    <contour>
      <point x="224" y="44" type="curve"/>
      <point x="224" y="77" type="line"/>
      <point x="174" y="69"/>
      <point x="175" y="72"/>
      <point x="176" y="158" type="curve"/>
      <point x="177" y="224"/>
      <point x="181" y="278"/>
      <point x="182" y="358" type="curve"/>
      <point x="168" y="390"/>
      <point x="147" y="425"/>
      <point x="125" y="441" type="curve"/>
      <point x="19" y="390" type="line"/>
      <point x="19" y="360" type="line"/>
      <point x="64" y="367"/>
      <point x="78" y="334"/>
      <point x="78" y="308" type="curve"/>
      <point x="78" y="231"/>
      <point x="76" y="152"/>
      <point x="66" y="40" type="curve"/>
      <point x="72" y="21"/>
      <point x="91" y="0"/>
      <point x="112" y="-10" type="curve"/>
      <point x="150" y="7"/>
      <point x="170" y="20"/>
    </contour>
    <contour>
      <point x="126" y="431" type="move" name="_top"/>
    </contour>
  </outline>
</glyph>
<glyph name="o_macr" format="1">
  <advance width="426"/>
  <unicode hex="014D"/>
  <outline>
    <contour>
      <point x="282" y="536" type="curve"/>
      <point x="308" y="562"/>
      <point x="346" y="595"/>
      <point x="373" y="637" type="curve"/>
      <point x="374" y="650"/>
      <point x="363" y="665"/>
      <point x="357" y="667" type="curve"/>
      <point x="325" y="637" type="line"/>
      <point x="333" y="633"/>
      <point x="339" y="627"/>
      <point x="339" y="620" type="curve"/>
      <point x="313" y="608"/>
      <point x="307" y="620"/>
      <point x="198" y="629" type="curve"/>
      <point x="183" y="618"/>
      <point x="152" y="583"/>
      <point x="111" y="548" type="curve"/>
      <point x="129" y="535" type="line"/>
      <point x="176" y="549"/>
      <point x="191" y="550"/>
    </contour>
    <component base="o"/>
  </outline>
</glyph>
<glyph name="u_macr" format="1">
  <advance width="443"/>
  <unicode hex="016B"/>
  <outline>
    <contour>
      <point x="173" y="613" type="curve"/>
      <point x="140" y="576"/>
      <point x="112" y="550"/>
      <point x="88" y="528" type="curve"/>
      <point x="118" y="516" type="line"/>
      <point x="155" y="526"/>
      <point x="216" y="525"/>
      <point x="288" y="525" type="curve"/>
      <point x="306" y="542"/>
      <point x="338" y="570"/>
      <point x="374" y="614" type="curve"/>
      <point x="346" y="625" type="line"/>
      <point x="308" y="604"/>
      <point x="272" y="607"/>
    </contour>
    <component base="u"/>
    <contour>
      <point x="215" y="430" type="move" name="_top"/>
    </contour>
    <contour>
      <point x="215" y="672" type="move" name="top"/>
    </contour>
  </outline>
</glyph>
<glyph name="u_ring" format="1">
  <advance width="444"/>
  <unicode hex="016F"/>
  <outline>
    <contour>
      <point x="5" y="402" type="curve"/>
      <point x="5" y="429" type="line"/>
      <point x="161" y="431" type="line"/>
      <point x="166" y="422" type="line"/>
      <point x="152" y="364"/>
      <point x="158" y="237"/>
      <point x="158" y="166" type="curve"/>
      <point x="158" y="106"/>
      <point x="194" y="85"/>
      <point x="239" y="85" type="curve"/>
      <point x="264" y="85"/>
      <point x="304" y="102"/>
      <point x="334" y="129" type="curve"/>
      <point x="334" y="83" type="line"/>
      <point x="274" y="56"/>
      <point x="217" y="12"/>
      <point x="157" y="-10" type="curve"/>
      <point x="95" y="10"/>
      <point x="69" y="44"/>
      <point x="58" y="88" type="curve"/>
      <point x="58" y="132"/>
      <point x="58" y="317"/>
      <point x="58" y="338" type="curve"/>
      <point x="58" y="374"/>
      <point x="57" y="387"/>
    </contour>
    <contour>
      <point x="286" y="71" type="curve"/>
      <point x="286" y="108"/>
      <point x="286" y="235"/>
      <point x="286" y="326" type="curve"/>
      <point x="286" y="376"/>
      <point x="281" y="379"/>
      <point x="261" y="392" type="curve"/>
      <point x="261" y="419" type="line"/>
      <point x="408" y="434" type="line"/>
      <point x="413" y="413" type="line"/>
      <point x="393" y="385"/>
      <point x="391" y="386"/>
      <point x="389" y="347" type="curve"/>
      <point x="385" y="276"/>
      <point x="386" y="174"/>
      <point x="386" y="141" type="curve"/>
      <point x="386" y="100"/>
      <point x="387" y="92"/>
      <point x="423" y="74" type="curve"/>
      <point x="423" y="49" type="line"/>
      <point x="324" y="-15" type="line"/>
      <point x="306" y="6"/>
      <point x="286" y="34"/>
    </contour>
    <contour>
      <point x="230" y="700" type="curve"/>
      <point x="306" y="700"/>
      <point x="357" y="663"/>
      <point x="357" y="586" type="curve"/>
      <point x="357" y="513"/>
      <point x="281" y="467"/>
      <point x="208" y="467" type="curve"/>
      <point x="131" y="467"/>
      <point x="81" y="510"/>
      <point x="81" y="580" type="curve"/>
      <point x="81" y="640"/>
      <point x="136" y="700"/>
    </contour>
    <contour>
      <point x="238" y="505" type="curve"/>
      <point x="264" y="505"/>
      <point x="280" y="531"/>
      <point x="280" y="565" type="curve"/>
      <point x="280" y="612"/>
      <point x="253" y="660"/>
      <point x="205" y="660" type="curve"/>
      <point x="171" y="660"/>
      <point x="159" y="632"/>
      <point x="159" y="597" type="curve"/>
      <point x="159" y="555"/>
      <point x="193" y="505"/>
    </contour>
  </outline>
</glyph>
<glyph name="longs" format="1">
  <advance width="273"/>
  <unicode hex="017F"/>
  <outline>
    <contour>
      <point x="383" y="668" type="curve"/>
      <point x="383" y="661" type="line"/>
      <point x="352" y="629"/>
      <point x="332" y="611"/>
      <point x="316" y="587" type="curve"/>
      <point x="273" y="609"/>
      <point x="221" y="628"/>
      <point x="187" y="628" type="curve"/>
      <point x="170" y="600"/>
      <point x="153" y="548"/>
      <point x="152" y="475" type="curve"/>
      <point x="149" y="272"/>
      <point x="155" y="123"/>
      <point x="161" y="21" type="curve"/>
      <point x="64" y="-12" type="line"/>
      <point x="49" y="-5" type="line"/>
      <point x="51" y="10"/>
      <point x="56" y="90"/>
      <point x="56" y="189" type="curve"/>
      <point x="56" y="280"/>
      <point x="58" y="357"/>
      <point x="45" y="447" type="curve"/>
      <point x="45" y="463" type="line"/>
      <point x="76" y="549"/>
      <point x="119" y="633"/>
      <point x="222" y="710" type="curve"/>
      <point x="271" y="710"/>
      <point x="328" y="692"/>
    </contour>
  </outline>
</glyph>
<glyph name="b_strok" format="1">
  <advance width="442"/>
  <unicode hex="0180"/>
  <outline>
    <contour>
      <point x="313" y="672" type="line"/>
      <point x="189" y="692" type="line"/>
      <point x="183" y="672" type="line"/>
      <point x="218" y="655" type="line"/>
      <point x="218" y="614"/>
      <point x="193" y="550"/>
      <point x="100" y="445" type="curve"/>
      <point x="105" y="419" type="line"/>
      <point x="239" y="529"/>
      <point x="275" y="598"/>
      <point x="317" y="660" type="curve"/>
    </contour>
    <contour>
      <point x="114" y="399" type="curve"/>
      <point x="115" y="363" type="line"/>
      <point x="313" y="402"/>
      <point x="418" y="177"/>
      <point x="292" y="74" type="curve"/>
      <point x="114" y="60"/>
      <point x="124" y="156"/>
      <point x="124" y="254" type="curve"/>
      <point x="124" y="466"/>
      <point x="142" y="629"/>
      <point x="151" y="688" type="curve"/>
      <point x="145" y="700" type="line"/>
      <point x="30" y="700" type="line"/>
      <point x="40" y="591"/>
      <point x="35" y="345"/>
      <point x="35" y="94" type="curve"/>
      <point x="52" y="37"/>
      <point x="122" y="-10"/>
      <point x="197" y="-10" type="curve"/>
      <point x="275" y="-10"/>
      <point x="422" y="97"/>
      <point x="422" y="237" type="curve"/>
      <point x="422" y="349"/>
      <point x="377" y="421"/>
      <point x="280" y="441" type="curve"/>
      <point x="243" y="433"/>
      <point x="156" y="414"/>
    </contour>
  </outline>
</glyph>
<glyph name="Eta" format="1">
  <advance width="424"/>
  <unicode hex="0397"/>
  <outline>
    <contour>
      <point x="84" y="-1" type="curve"/>
      <point x="88" y="-10" type="line"/>
      <point x="190" y="19" type="line"/>
      <point x="192" y="93"/>
      <point x="194" y="187"/>
      <point x="194" y="225" type="curve"/>
      <point x="194" y="323"/>
      <point x="185" y="407"/>
      <point x="143" y="440" type="curve"/>
      <point x="49" y="390" type="line"/>
      <point x="49" y="370" type="line"/>
      <point x="83" y="350"/>
      <point x="102" y="317"/>
      <point x="102" y="199" type="curve"/>
      <point x="102" y="95"/>
      <point x="97" y="53"/>
    </contour>
    <contour>
      <point x="394" y="17" type="line"/>
      <point x="396" y="28" type="line"/>
      <point x="375" y="76"/>
      <point x="362" y="182"/>
      <point x="362" y="278" type="curve"/>
      <point x="362" y="342"/>
      <point x="360" y="378"/>
      <point x="385" y="405" type="curve"/>
      <point x="385" y="440" type="line"/>
      <point x="265" y="426" type="line"/>
      <point x="264" y="382"/>
      <point x="263" y="340"/>
      <point x="263" y="284" type="curve"/>
      <point x="263" y="179"/>
      <point x="281" y="37"/>
      <point x="287" y="-7" type="curve"/>
    </contour>
    <contour>
      <point x="162" y="247" type="curve"/>
      <point x="159" y="181" type="line"/>
      <point x="202" y="209"/>
      <point x="245" y="221"/>
      <point x="288" y="236" type="curve"/>
      <point x="282" y="299" type="line"/>
      <point x="242" y="275"/>
      <point x="198" y="257"/>
    </contour>
  </outline>
</glyph>
<glyph name="alpha" format="1">
  <advance width="652"/>
  <unicode hex="03B1"/>
  <outline>
    <contour>
      <point x="639" y="177" type="curve"/>
      <point x="615" y="192" type="line"/>
      <point x="593" y="156"/>
      <point x="567" y="118"/>
      <point x="537" y="118" type="curve"/>
      <point x="454" y="118"/>
      <point x="419" y="450"/>
      <point x="197" y="430" type="curve"/>
      <point x="120" y="380"/>
      <point x="40" y="257"/>
      <point x="40" y="183" type="curve"/>
      <point x="40" y="84"/>
      <point x="100" y="0"/>
      <point x="192" y="-10" type="curve"/>
      <point x="274" y="10"/>
      <point x="358" y="53"/>
      <point x="418" y="154" type="curve"/>
      <point x="394" y="183" type="line"/>
      <point x="350" y="108"/>
      <point x="304" y="85"/>
      <point x="243" y="85" type="curve"/>
      <point x="175" y="85"/>
      <point x="112" y="149"/>
      <point x="112" y="232" type="curve"/>
      <point x="112" y="288"/>
      <point x="137" y="327"/>
      <point x="196" y="327" type="curve"/>
      <point x="269" y="327"/>
      <point x="333" y="274"/>
      <point x="366" y="160" type="curve"/>
      <point x="403" y="33"/>
      <point x="468" y="-10"/>
      <point x="511" y="-10" type="curve"/>
      <point x="561" y="20"/>
      <point x="607" y="82"/>
    </contour>
    <contour>
      <point x="421" y="250" type="curve"/>
      <point x="446" y="214" type="line"/>
      <point x="454" y="295"/>
      <point x="495" y="357"/>
      <point x="541" y="386" type="curve"/>
      <point x="541" y="398" type="line"/>
      <point x="459" y="440" type="line"/>
      <point x="423" y="394"/>
      <point x="403" y="299"/>
    </contour>
  </outline>
</glyph>
<glyph name="beta" format="1">
  <advance width="541"/>
  <unicode hex="03B2"/>
  <outline>
    <contour>
      <point x="10" y="613" type="curve"/>
      <point x="45" y="477"/>
      <point x="65" y="262"/>
      <point x="65" y="56" type="curve"/>
      <point x="65" y="-87"/>
      <point x="46" y="-130"/>
      <point x="33" y="-156" type="curve"/>
      <point x="33" y="-180" type="line"/>
      <point x="134" y="-259" type="line"/>
      <point x="177" y="-195"/>
      <point x="177" y="-65"/>
      <point x="164" y="103" type="curve"/>
      <point x="227" y="35"/>
      <point x="275" y="-10"/>
      <point x="361" y="-10" type="curve"/>
      <point x="455" y="-10"/>
      <point x="526" y="60"/>
      <point x="526" y="143" type="curve"/>
      <point x="526" y="210"/>
      <point x="488" y="262"/>
      <point x="450" y="279" type="curve"/>
      <point x="401" y="270"/>
      <point x="333" y="258"/>
      <point x="264" y="255" type="curve"/>
      <point x="324" y="326"/>
      <point x="385" y="421"/>
      <point x="385" y="507" type="curve"/>
      <point x="385" y="572"/>
      <point x="320" y="684"/>
      <point x="221" y="710" type="curve"/>
      <point x="184" y="702"/>
      <point x="81" y="655"/>
    </contour>
    <contour>
      <point x="124" y="592" type="curve"/>
      <point x="154" y="608"/>
      <point x="171" y="614"/>
      <point x="186" y="611" type="curve"/>
      <point x="235" y="602"/>
      <point x="275" y="524"/>
      <point x="275" y="445" type="curve"/>
      <point x="275" y="367"/>
      <point x="233" y="255"/>
      <point x="157" y="200" type="curve"/>
      <point x="146" y="352"/>
      <point x="131" y="527"/>
    </contour>
    <contour>
      <point x="176" y="162" type="curve"/>
      <point x="187" y="172" type="line"/>
      <point x="219" y="198"/>
      <point x="263" y="223"/>
      <point x="329" y="223" type="curve"/>
      <point x="383" y="223"/>
      <point x="416" y="195"/>
      <point x="416" y="151" type="curve"/>
      <point x="416" y="107"/>
      <point x="373" y="85"/>
      <point x="323" y="85" type="curve"/>
      <point x="260" y="85"/>
      <point x="219" y="111"/>
    </contour>
  </outline>
</glyph>
<glyph name="gamma" format="1">
  <advance width="387"/>
  <unicode hex="03B3"/>
  <outline>
    <contour>
      <point x="20" y="362" type="curve"/>
      <point x="19" y="377" type="line"/>
      <point x="64" y="405"/>
      <point x="116" y="430"/>
      <point x="146" y="430" type="curve"/>
      <point x="231" y="430"/>
      <point x="300" y="427"/>
      <point x="376" y="453" type="curve"/>
      <point x="389" y="439" type="line"/>
      <point x="369" y="410"/>
      <point x="340" y="371"/>
      <point x="322" y="351" type="curve"/>
      <point x="256" y="351"/>
      <point x="164" y="365"/>
      <point x="131" y="351" type="curve"/>
      <point x="123" y="288"/>
      <point x="149" y="125"/>
      <point x="135" y="-7" type="curve"/>
      <point x="98" y="1"/>
      <point x="63" y="8"/>
      <point x="26" y="15" type="curve"/>
      <point x="26" y="36" type="line"/>
      <point x="42" y="51"/>
      <point x="54" y="70"/>
      <point x="54" y="230" type="curve"/>
      <point x="54" y="302"/>
      <point x="52" y="337"/>
    </contour>
  </outline>
</glyph>
<glyph name="delta" format="1">
  <advance width="524"/>
  <unicode hex="03B4"/>
  <outline>
    <contour>
      <point x="439" y="526" type="curve"/>
      <point x="463" y="535" type="line"/>
      <point x="497" y="484"/>
      <point x="504" y="385"/>
      <point x="459" y="359" type="curve"/>
      <point x="255" y="359"/>
      <point x="131" y="305"/>
      <point x="131" y="199" type="curve"/>
      <point x="131" y="119"/>
      <point x="183" y="85"/>
      <point x="233" y="85" type="curve"/>
      <point x="273" y="85"/>
      <point x="298" y="106"/>
      <point x="298" y="156" type="curve"/>
      <point x="298" y="213"/>
      <point x="233" y="281"/>
      <point x="147" y="293" type="curve"/>
      <point x="194" y="324" type="line"/>
      <point x="324" y="297"/>
      <point x="393" y="254"/>
      <point x="393" y="154" type="curve"/>
      <point x="393" y="64"/>
      <point x="313" y="-10"/>
      <point x="213" y="-10" type="curve"/>
      <point x="103" y="-10"/>
      <point x="44" y="71"/>
      <point x="44" y="171" type="curve"/>
      <point x="44" y="312"/>
      <point x="153" y="413"/>
      <point x="320" y="440" type="curve"/>
      <point x="428" y="458"/>
      <point x="431" y="458"/>
    </contour>
  </outline>
</glyph>
<glyph name="epsilon" format="1">
  <advance width="367"/>
  <unicode hex="03B5"/>
  <outline>
    <contour>
      <point x="313" y="188" type="line"/>
      <point x="296" y="185" type="line"/>
      <point x="269" y="126"/>
      <point x="239" y="78"/>
      <point x="190" y="78" type="curve"/>
      <point x="154" y="78"/>
      <point x="140" y="103"/>
      <point x="140" y="130" type="curve"/>
      <point x="140" y="161"/>
      <point x="156" y="189"/>
      <point x="189" y="214" type="curve"/>
      <point x="210" y="218"/>
      <point x="247" y="230"/>
      <point x="251" y="239" type="curve"/>
      <point x="234" y="276" type="line"/>
      <point x="225" y="274"/>
      <point x="198" y="256"/>
      <point x="193" y="256" type="curve"/>
      <point x="164" y="256"/>
      <point x="141" y="280"/>
      <point x="141" y="310" type="curve"/>
      <point x="141" y="343"/>
      <point x="157" y="379"/>
      <point x="220" y="389" type="curve"/>
      <point x="215" y="439" type="line"/>
      <point x="139" y="450"/>
      <point x="51" y="384"/>
      <point x="51" y="301" type="curve"/>
      <point x="51" y="262"/>
      <point x="86" y="228"/>
      <point x="131" y="222" type="curve"/>
      <point x="94" y="210"/>
      <point x="40" y="161"/>
      <point x="40" y="96" type="curve"/>
      <point x="40" y="26"/>
      <point x="97" y="-10"/>
      <point x="167" y="-10" type="curve"/>
      <point x="242" y="-10"/>
      <point x="322" y="60"/>
      <point x="347" y="142" type="curve"/>
    </contour>
  </outline>
</glyph>
<glyph name="theta" format="1">
  <advance width="454"/>
  <unicode hex="03B8"/>
  <outline>
    <contour>
      <point x="227" y="-10" type="curve"/>
      <point x="337" y="-10"/>
      <point x="424" y="96"/>
      <point x="424" y="296" type="curve"/>
      <point x="424" y="496"/>
      <point x="337" y="605"/>
      <point x="227" y="605" type="curve"/>
      <point x="117" y="605"/>
      <point x="30" y="495"/>
      <point x="30" y="295" type="curve"/>
      <point x="30" y="95"/>
      <point x="117" y="-10"/>
    </contour>
    <contour>
      <point x="227" y="65" type="curve"/>
      <point x="167" y="65"/>
      <point x="120" y="148"/>
      <point x="120" y="296" type="curve"/>
      <point x="120" y="449"/>
      <point x="167" y="530"/>
      <point x="227" y="530" type="curve"/>
      <point x="287" y="530"/>
      <point x="334" y="449"/>
      <point x="334" y="296" type="curve"/>
      <point x="334" y="148"/>
      <point x="287" y="65"/>
    </contour>
    <contour>
      <point x="73" y="325" type="curve"/>
      <point x="73" y="267" type="line"/>
      <point x="176" y="277"/>
      <point x="253" y="277"/>
      <point x="355" y="267" type="curve"/>
      <point x="355" y="325" type="line"/>
      <point x="266" y="316"/>
      <point x="163" y="316"/>
    </contour>
  </outline>
</glyph>
<glyph name="kappa" format="1">
  <advance width="527"/>
  <unicode hex="03BA"/>
  <outline>
    <contour>
      <point x="155" y="440" type="line"/>
      <point x="39" y="365" type="line"/>
      <point x="39" y="340" type="line"/>
      <point x="76" y="334"/>
      <point x="88" y="279"/>
      <point x="88" y="226" type="curve"/>
      <point x="88" y="128"/>
      <point x="89" y="68"/>
      <point x="72" y="-30" type="curve"/>
      <point x="97" y="-38" type="line"/>
      <point x="225" y="142"/>
      <point x="394" y="290"/>
      <point x="507" y="382" type="curve"/>
      <point x="506" y="400" type="line"/>
      <point x="424" y="440" type="line"/>
      <point x="324" y="345"/>
      <point x="225" y="229"/>
      <point x="145" y="114" type="curve"/>
      <point x="179" y="152" type="line"/>
      <point x="179" y="433" type="line"/>
    </contour>
    <contour>
      <point x="244" y="175" type="curve"/>
      <point x="174" y="100" type="line"/>
      <point x="241" y="46"/>
      <point x="349" y="0"/>
      <point x="385" y="-10" type="curve"/>
      <point x="483" y="0" type="line"/>
      <point x="483" y="25" type="line"/>
      <point x="411" y="48"/>
      <point x="273" y="122"/>
    </contour>
  </outline>
</glyph>
<glyph name="mu" format="1">
  <advance width="444"/>
  <unicode hex="03BC"/>
  <outline>
    <contour>
      <point x="63" y="440" type="line"/>
      <point x="142" y="410" type="line"/>
      <point x="142" y="252"/>
      <point x="151" y="-43"/>
      <point x="162" y="-198" type="curve"/>
      <point x="53" y="-200" type="line"/>
      <point x="62" y="11"/>
      <point x="65" y="245"/>
      <point x="50" y="432" type="curve"/>
    </contour>
    <contour>
      <point x="382" y="442" type="line"/>
      <point x="395" y="423" type="line"/>
      <point x="369" y="383"/>
      <point x="393" y="289"/>
      <point x="393" y="151" type="curve"/>
      <point x="393" y="41"/>
      <point x="334" y="-10"/>
      <point x="256" y="-10" type="curve"/>
      <point x="210" y="-10"/>
      <point x="138" y="46"/>
      <point x="126" y="91" type="curve"/>
      <point x="133" y="130" type="line"/>
      <point x="154" y="92"/>
      <point x="196" y="74"/>
      <point x="225" y="74" type="curve"/>
      <point x="259" y="74"/>
      <point x="309" y="100"/>
      <point x="309" y="182" type="curve"/>
      <point x="309" y="266"/>
      <point x="300" y="350"/>
      <point x="283" y="410" type="curve"/>
    </contour>
  </outline>
</glyph>
<glyph name="xi" format="1">
  <advance width="325"/>
  <unicode hex="03BE"/>
  <outline>
    <contour>
      <point x="282" y="-131" type="curve"/>
      <point x="191" y="-92"/>
      <point x="138" y="-70"/>
      <point x="138" y="-16" type="curve"/>
      <point x="138" y="51"/>
      <point x="196" y="83"/>
      <point x="278" y="109" type="curve"/>
      <point x="266" y="143" type="line"/>
      <point x="187" y="109"/>
      <point x="133" y="131"/>
      <point x="133" y="206" type="curve"/>
      <point x="133" y="268"/>
      <point x="189" y="299"/>
      <point x="256" y="315" type="curve"/>
      <point x="252" y="348" type="line"/>
      <point x="194" y="331"/>
      <point x="140" y="351"/>
      <point x="140" y="409" type="curve"/>
      <point x="140" y="464"/>
      <point x="189" y="494"/>
      <point x="271" y="501" type="curve"/>
      <point x="262" y="557" type="line"/>
      <point x="149" y="557"/>
      <point x="54" y="491"/>
      <point x="54" y="400" type="curve"/>
      <point x="54" y="330"/>
      <point x="106" y="309"/>
      <point x="135" y="283" type="curve"/>
      <point x="137" y="313" type="line"/>
      <point x="129" y="297"/>
      <point x="49" y="272"/>
      <point x="49" y="187" type="curve"/>
      <point x="49" y="126"/>
      <point x="92" y="89"/>
      <point x="142" y="64" type="curve"/>
      <point x="149" y="102" type="line"/>
      <point x="94" y="55"/>
      <point x="58" y="-2"/>
      <point x="58" y="-50" type="curve"/>
      <point x="58" y="-131"/>
      <point x="139" y="-169"/>
      <point x="237" y="-213" type="curve"/>
      <point x="288" y="-236"/>
      <point x="325" y="-258"/>
      <point x="325" y="-280" type="curve"/>
      <point x="325" y="-298"/>
      <point x="314" y="-305"/>
      <point x="292" y="-316" type="curve"/>
      <point x="302" y="-340" type="line"/>
      <point x="361" y="-335"/>
      <point x="425" y="-293"/>
      <point x="425" y="-251" type="curve"/>
      <point x="425" y="-212"/>
      <point x="398" y="-181"/>
    </contour>
  </outline>
</glyph>
<glyph name="pi" format="1">
  <advance width="723"/>
  <unicode hex="03C0"/>
  <outline>
    <contour>
      <point x="40" y="303" type="curve"/>
      <point x="10" y="314" type="line"/>
      <point x="27" y="350"/>
      <point x="54" y="407"/>
      <point x="79" y="435" type="curve"/>
      <point x="182" y="435"/>
      <point x="326" y="430"/>
      <point x="484" y="430" type="curve"/>
      <point x="602" y="430"/>
      <point x="672" y="443"/>
      <point x="687" y="477" type="curve"/>
      <point x="718" y="470" type="line"/>
      <point x="711" y="423"/>
      <point x="701" y="378"/>
      <point x="678" y="340" type="curve"/>
      <point x="494" y="340"/>
      <point x="311" y="350"/>
      <point x="127" y="350" type="curve"/>
      <point x="83" y="350"/>
      <point x="59" y="335"/>
    </contour>
    <contour>
      <point x="170" y="374" type="curve"/>
      <point x="271" y="374" type="line"/>
      <point x="256" y="225"/>
      <point x="260" y="36"/>
      <point x="260" y="4" type="curve"/>
      <point x="223" y="-3"/>
      <point x="174" y="-4"/>
      <point x="125" y="-14" type="curve"/>
      <point x="117" y="15" type="line"/>
      <point x="136" y="25"/>
      <point x="157" y="33"/>
      <point x="160" y="70" type="curve"/>
      <point x="166" y="148"/>
      <point x="168" y="311"/>
    </contour>
    <contour>
      <point x="468" y="369" type="curve"/>
      <point x="560" y="369" type="line"/>
      <point x="559" y="271"/>
      <point x="565" y="138"/>
      <point x="572" y="0" type="curve"/>
      <point x="456" y="0" type="line"/>
      <point x="462" y="146"/>
      <point x="465" y="228"/>
    </contour>
  </outline>
</glyph>
<glyph name="rho" format="1">
  <advance width="434"/>
  <unicode hex="03C1"/>
  <outline>
    <contour>
      <point x="44" y="-205" type="curve"/>
      <point x="34" y="-230" type="line"/>
      <point x="73" y="-246"/>
      <point x="151" y="-275"/>
      <point x="158" y="-275" type="curve"/>
      <point x="183" y="-244"/>
      <point x="188" y="-228"/>
      <point x="189" y="-185" type="curve"/>
      <point x="191" y="-87"/>
      <point x="168" y="22"/>
      <point x="165" y="110" type="curve"/>
      <point x="175" y="102"/>
      <point x="204" y="92"/>
      <point x="237" y="92" type="curve"/>
      <point x="327" y="92"/>
      <point x="399" y="170"/>
      <point x="399" y="266" type="curve"/>
      <point x="399" y="372"/>
      <point x="330" y="440"/>
      <point x="238" y="440" type="curve"/>
      <point x="143" y="440"/>
      <point x="71" y="380"/>
      <point x="71" y="266" type="curve"/>
      <point x="71" y="171"/>
      <point x="88" y="67"/>
      <point x="88" y="-10" type="curve"/>
      <point x="88" y="-91"/>
      <point x="84" y="-211"/>
    </contour>
    <contour>
      <point x="148" y="260" type="curve"/>
      <point x="148" y="311"/>
      <point x="187" y="348"/>
      <point x="233" y="348" type="curve"/>
      <point x="276" y="348"/>
      <point x="316" y="316"/>
      <point x="316" y="255" type="curve"/>
      <point x="316" y="205"/>
      <point x="276" y="172"/>
      <point x="233" y="172" type="curve"/>
      <point x="187" y="172"/>
      <point x="148" y="200"/>
    </contour>
  </outline>
</glyph>
<glyph name="tau" format="1">
  <advance width="518"/>
  <unicode hex="03C4"/>
  <outline>
    <contour>
      <point x="40" y="303" type="curve"/>
      <point x="17" y="316" type="line"/>
      <point x="50" y="382"/>
      <point x="103" y="435"/>
      <point x="150" y="435" type="curve"/>
      <point x="205" y="435"/>
      <point x="240" y="430"/>
      <point x="337" y="430" type="curve"/>
      <point x="455" y="430"/>
      <point x="462" y="443"/>
      <point x="477" y="477" type="curve"/>
      <point x="498" y="465" type="line"/>
      <point x="495" y="418"/>
      <point x="487" y="371"/>
      <point x="462" y="335" type="curve"/>
      <point x="367" y="339"/>
      <point x="272" y="348"/>
      <point x="177" y="348" type="curve"/>
      <point x="133" y="348"/>
      <point x="59" y="335"/>
    </contour>
    <contour>
      <point x="227" y="374" type="curve"/>
      <point x="316" y="374" type="line"/>
      <point x="306" y="225"/>
      <point x="315" y="94"/>
      <point x="314" y="-2" type="curve"/>
      <point x="173" y="-10" type="line"/>
      <point x="170" y="19" type="line"/>
      <point x="189" y="29"/>
      <point x="207" y="37"/>
      <point x="210" y="74" type="curve"/>
      <point x="216" y="152"/>
      <point x="225" y="311"/>
    </contour>
  </outline>
</glyph>
<glyph name="upsilon" format="1">
  <advance width="626"/>
  <unicode hex="03C5"/>
  <outline>
    <contour>
      <point x="10" y="340" type="curve"/>
      <point x="10" y="370" type="line"/>
      <point x="149" y="419" type="line"/>
      <point x="172" y="389"/>
      <point x="193" y="340"/>
      <point x="217" y="274" type="curve"/>
      <point x="249" y="188"/>
      <point x="265" y="85"/>
      <point x="343" y="85" type="curve"/>
      <point x="420" y="85"/>
      <point x="443" y="200"/>
      <point x="486" y="386" type="curve"/>
      <point x="627" y="418" type="line"/>
      <point x="628" y="387" type="line"/>
      <point x="549" y="315"/>
      <point x="507" y="-10"/>
      <point x="338" y="-10" type="curve"/>
      <point x="211" y="-10"/>
      <point x="184" y="87"/>
      <point x="136" y="207" type="curve"/>
      <point x="101" y="294"/>
      <point x="62" y="325"/>
    </contour>
  </outline>
</glyph>
<glyph name="phi" format="1">
  <advance width="690"/>
  <unicode hex="03C6"/>
  <outline>
    <contour>
      <point x="410" y="666" type="line"/>
      <point x="304" y="702" type="line"/>
      <point x="291" y="691" type="line"/>
      <point x="293" y="612"/>
      <point x="298" y="447"/>
      <point x="298" y="358" type="curve"/>
      <point x="298" y="137"/>
      <point x="303" y="20"/>
      <point x="303" y="-83" type="curve"/>
      <point x="303" y="-199"/>
      <point x="306" y="-225"/>
      <point x="235" y="-239" type="curve"/>
      <point x="238" y="-330" type="line"/>
      <point x="308" y="-312"/>
      <point x="395" y="-259"/>
      <point x="393" y="-183" type="curve"/>
      <point x="389" y="-48"/>
      <point x="384" y="227"/>
      <point x="384" y="369" type="curve"/>
      <point x="384" y="492"/>
      <point x="386" y="585"/>
      <point x="414" y="652" type="curve"/>
    </contour>
    <contour>
      <point x="30" y="202" type="curve"/>
      <point x="30" y="83"/>
      <point x="141" y="23"/>
      <point x="339" y="23" type="curve"/>
      <point x="517" y="23"/>
      <point x="660" y="102"/>
      <point x="660" y="222" type="curve"/>
      <point x="660" y="332"/>
      <point x="562" y="414"/>
      <point x="355" y="414" type="curve"/>
      <point x="148" y="414"/>
      <point x="30" y="311"/>
    </contour>
    <contour>
      <point x="102" y="202" type="curve"/>
      <point x="102" y="270"/>
      <point x="198" y="323"/>
      <point x="356" y="323" type="curve"/>
      <point x="483" y="323"/>
      <point x="590" y="294"/>
      <point x="590" y="222" type="curve"/>
      <point x="590" y="150"/>
      <point x="479" y="115"/>
      <point x="339" y="115" type="curve"/>
      <point x="199" y="115"/>
      <point x="102" y="138"/>
    </contour>
  </outline>
</glyph>
<glyph name="omega" format="1">
  <advance width="817"/>
  <unicode hex="03C9"/>
  <outline>
    <contour>
      <point x="768" y="225" type="curve"/>
      <point x="768" y="348"/>
      <point x="671" y="416"/>
      <point x="558" y="426" type="curve"/>
      <point x="518" y="336" type="line"/>
      <point x="625" y="324"/>
      <point x="688" y="274"/>
      <point x="688" y="201" type="curve"/>
      <point x="688" y="128"/>
      <point x="646" y="84"/>
      <point x="578" y="84" type="curve"/>
      <point x="505" y="84"/>
      <point x="453" y="123"/>
      <point x="453" y="210" type="curve"/>
      <point x="373" y="219" type="line"/>
      <point x="350" y="131"/>
      <point x="304" y="82"/>
      <point x="223" y="82" type="curve"/>
      <point x="159" y="82"/>
      <point x="112" y="127"/>
      <point x="112" y="193" type="curve"/>
      <point x="112" y="258"/>
      <point x="166" y="322"/>
      <point x="257" y="325" type="curve"/>
      <point x="320" y="413" type="line"/>
      <point x="319" y="430" type="line"/>
      <point x="148" y="457"/>
      <point x="40" y="305"/>
      <point x="40" y="181" type="curve"/>
      <point x="40" y="54"/>
      <point x="117" y="-10"/>
      <point x="217" y="-10" type="curve"/>
      <point x="310" y="-10"/>
      <point x="374" y="58"/>
      <point x="407" y="130" type="curve"/>
      <point x="378" y="132" type="line"/>
      <point x="391" y="60"/>
      <point x="448" y="-10"/>
      <point x="560" y="-10" type="curve"/>
      <point x="680" y="-10"/>
      <point x="768" y="86"/>
    </contour>
  </outline>
</glyph>
<glyph name="p_bardes" format="1">
  <advance width="495"/>
  <unicode hex="A751"/>
  <outline>
    <contour>
      <point x="34" y="-117" type="curve"/>
      <point x="10" y="-169" type="line"/>
      <point x="26" y="-191" type="line"/>
      <point x="153" y="-182"/>
      <point x="287" y="-203"/>
      <point x="395" y="-249" type="curve"/>
      <point x="430" y="-235" type="line"/>
      <point x="432" y="-228" type="line"/>
      <point x="334" y="-180"/>
      <point x="171" y="-123"/>
    </contour>
    <component base="p" xOffset="34"/>
  </outline>
</glyph>
<glyph name="p_flour" format="1">
  <advance width="635"/>
  <unicode hex="A752"/>
  <outline>
    <contour>
      <point x="280" y="-9" type="curve"/>
      <point x="281" y="21" type="line"/>
      <point x="197" y="21" type="line" smooth="yes"/>
      <point x="40" y="21"/>
      <point x="-30" y="-16"/>
      <point x="-30" y="-82" type="curve"/>
      <point x="-30" y="-147"/>
      <point x="80" y="-179"/>
      <point x="80" y="-232" type="curve"/>
      <point x="80" y="-250"/>
      <point x="74" y="-262"/>
      <point x="53" y="-262" type="curve"/>
      <point x="36" y="-262"/>
      <point x="10" y="-245"/>
      <point x="-5" y="-227" type="curve"/>
      <point x="-20" y="-233" type="line"/>
      <point x="-15" y="-280"/>
      <point x="-8" y="-340"/>
      <point x="5" y="-340" type="curve"/>
      <point x="35" y="-337" type="line"/>
      <point x="71" y="-302"/>
      <point x="150" y="-254"/>
      <point x="150" y="-177" type="curve"/>
      <point x="150" y="-126"/>
      <point x="70" y="-97"/>
      <point x="70" y="-64" type="curve"/>
      <point x="70" y="-25"/>
      <point x="141" y="-4"/>
    </contour>
    <component base="p" xOffset="174"/>
  </outline>
</glyph>
<glyph name="q_strok" format="1">
  <advance width="628"/>
  <unicode hex="A759"/>
  <outline>
    <contour>
      <point x="508" y="440" type="curve"/>
      <point x="372" y="303" type="line"/>
      <point x="387" y="286" type="line"/>
      <point x="460" y="331"/>
      <point x="514" y="291"/>
      <point x="514" y="211" type="curve"/>
      <point x="514" y="52"/>
      <point x="283" y="-114"/>
      <point x="84" y="-227" type="curve"/>
      <point x="105" y="-269" type="line"/>
      <point x="281" y="-153"/>
      <point x="608" y="50"/>
      <point x="608" y="279" type="curve"/>
      <point x="608" y="354"/>
      <point x="583" y="412"/>
    </contour>
    <component base="q"/>
  </outline>
</glyph>
<glyph name="us" format="1">
  <advance width="334"/>
  <unicode hex="A770"/>
  <outline>
    <contour>
      <point x="111" y="312" type="curve"/>
      <point x="232" y="386" type="line"/>
      <point x="236" y="418" type="line"/>
      <point x="158" y="377"/>
      <point x="79" y="446"/>
      <point x="79" y="537" type="curve"/>
      <point x="79" y="579"/>
      <point x="101" y="618"/>
      <point x="111" y="622" type="curve"/>
      <point x="189" y="622"/>
      <point x="236" y="563"/>
      <point x="236" y="477" type="curve"/>
      <point x="236" y="362"/>
      <point x="197" y="272"/>
      <point x="137" y="168" type="curve"/>
      <point x="49" y="12" type="line"/>
      <point x="89" y="-10" type="line"/>
      <point x="177" y="151" type="line" smooth="yes"/>
      <point x="246" y="277"/>
      <point x="304" y="414"/>
      <point x="304" y="528" type="curve"/>
      <point x="304" y="628"/>
      <point x="273" y="710"/>
      <point x="177" y="710" type="curve"/>
      <point x="81" y="710"/>
      <point x="20" y="599"/>
      <point x="20" y="474" type="curve"/>
      <point x="20" y="393"/>
      <point x="51" y="328"/>
    </contour>
  </outline>
</glyph>
<glyph name="m_macr" format="1">
  <advance width="648"/>
  <unicode hex="E5B8"/>
  <outline>
    <contour>
      <point x="175" y="514" type="curve"/>
      <point x="342" y="521"/>
      <point x="369" y="524"/>
      <point x="414" y="502" type="curve"/>
      <point x="435" y="515" type="line"/>
      <point x="412" y="542"/>
      <point x="377" y="593"/>
      <point x="362" y="607" type="curve"/>
      <point x="217" y="604"/>
      <point x="175" y="594"/>
      <point x="130" y="611" type="curve"/>
      <point x="110" y="596" type="line"/>
      <point x="132" y="572"/>
      <point x="149" y="554"/>
    </contour>
    <component base="m"/>
    <contour>
      <point x="356" y="430" type="move" name="_top"/>
    </contour>
    <contour>
      <point x="356" y="672" type="move" name="top"/>
    </contour>
  </outline>
</glyph>
<glyph name="n_macr" format="1">
  <advance width="448"/>
  <unicode hex="E5DC"/>
  <outline>
    <contour>
      <point x="188" y="622" type="curve"/>
      <point x="152" y="581"/>
      <point x="138" y="559"/>
      <point x="116" y="515" type="curve"/>
      <point x="147" y="506" type="line"/>
      <point x="189" y="555"/>
      <point x="231" y="544"/>
      <point x="303" y="551" type="curve"/>
      <point x="319" y="570"/>
      <point x="337" y="592"/>
      <point x="368" y="640" type="curve"/>
      <point x="339" y="648" type="line"/>
      <point x="304" y="623"/>
      <point x="267" y="624"/>
    </contour>
    <contour>
      <point x="61" y="272" type="curve"/>
      <point x="61" y="140"/>
      <point x="54" y="82"/>
      <point x="48" y="-7" type="curve"/>
      <point x="53" y="-13" type="line"/>
      <point x="101" y="-6"/>
      <point x="131" y="1"/>
      <point x="172" y="4" type="curve"/>
      <point x="162" y="100"/>
      <point x="161" y="189"/>
      <point x="161" y="341" type="curve"/>
      <point x="147" y="436" type="line"/>
      <point x="126" y="439" type="line"/>
      <point x="25" y="380" type="line"/>
      <point x="25" y="352" type="line"/>
      <point x="59" y="347"/>
      <point x="61" y="318"/>
    </contour>
    <contour>
      <point x="279" y="-5" type="curve"/>
      <point x="398" y="4" type="line"/>
      <point x="387" y="178"/>
      <point x="385" y="274"/>
      <point x="385" y="351" type="curve"/>
      <point x="385" y="395"/>
      <point x="322" y="431"/>
      <point x="297" y="440" type="curve"/>
      <point x="271" y="433"/>
      <point x="196" y="398"/>
      <point x="140" y="358" type="curve"/>
      <point x="154" y="326" type="line"/>
      <point x="220" y="358"/>
      <point x="285" y="327"/>
      <point x="285" y="256" type="curve"/>
      <point x="285" y="151"/>
      <point x="286" y="80"/>
    </contour>
  </outline>
</glyph>
<glyph name="c_t" format="1">
  <advance width="633"/>
  <unicode hex="EEC5"/>
  <outline>
    <contour>
      <point x="424" y="350" type="curve"/>
      <point x="437" y="430" type="line"/>
      <point x="493" y="428"/>
      <point x="553" y="430"/>
      <point x="609" y="432" type="curve"/>
      <point x="605" y="350" type="line"/>
      <point x="545" y="359"/>
      <point x="484" y="359"/>
    </contour>
    <contour>
      <point x="471" y="602" type="curve"/>
      <point x="471" y="548"/>
      <point x="451" y="307"/>
      <point x="454" y="156" type="curve"/>
      <point x="455" y="100"/>
      <point x="469" y="85"/>
      <point x="502" y="85" type="curve"/>
      <point x="534" y="85"/>
      <point x="577" y="108"/>
      <point x="606" y="132" type="curve"/>
      <point x="617" y="104" type="line"/>
      <point x="576" y="65"/>
      <point x="493" y="7"/>
      <point x="436" y="-10" type="curve"/>
      <point x="365" y="16"/>
      <point x="347" y="55"/>
      <point x="347" y="90" type="curve"/>
      <point x="347" y="161"/>
      <point x="363" y="256"/>
      <point x="360" y="320" type="curve"/>
      <point x="358" y="357"/>
      <point x="340" y="366"/>
      <point x="324" y="370" type="curve"/>
      <point x="324" y="381" type="line"/>
      <point x="343" y="401"/>
      <point x="353" y="416"/>
      <point x="358" y="430" type="curve"/>
      <point x="366" y="453"/>
      <point x="365" y="512"/>
      <point x="362" y="548" type="curve"/>
      <point x="359" y="588"/>
      <point x="331" y="604"/>
      <point x="286" y="604" type="curve"/>
      <point x="245" y="604"/>
      <point x="172" y="592"/>
      <point x="80" y="559" type="curve"/>
      <point x="74" y="585" type="line"/>
      <point x="173" y="620"/>
      <point x="292" y="674"/>
      <point x="365" y="684" type="curve"/>
      <point x="411" y="664"/>
      <point x="451" y="644"/>
    </contour>
    <component base="c"/>
  </outline>
</glyph>
<glyph name="f_i" format="1">
  <advance width="397"/>
  <unicode hex="FB01"/>
  <outline>
    <contour>
      <point x="29" y="362" type="curve"/>
      <point x="29" y="357" type="line"/>
      <point x="48" y="345"/>
      <point x="51" y="323"/>
      <point x="51" y="303" type="curve"/>
      <point x="51" y="186"/>
      <point x="50" y="85"/>
      <point x="37" y="-14" type="curve"/>
      <point x="47" y="-20" type="line"/>
      <point x="74" y="-7"/>
      <point x="112" y="4"/>
      <point x="159" y="11" type="curve"/>
      <point x="161" y="20" type="line"/>
      <point x="147" y="82"/>
      <point x="143" y="158"/>
      <point x="141" y="340" type="curve"/>
      <point x="177" y="341"/>
      <point x="211" y="343"/>
      <point x="246" y="333" type="curve"/>
      <point x="259" y="235"/>
      <point x="255" y="122"/>
      <point x="243" y="1" type="curve"/>
      <point x="266" y="-9" type="line"/>
      <point x="304" y="8"/>
      <point x="353" y="23"/>
      <point x="387" y="39" type="curve"/>
      <point x="387" y="65" type="line"/>
      <point x="347" y="65"/>
      <point x="348" y="60"/>
      <point x="344" y="146" type="curve"/>
      <point x="341" y="212"/>
      <point x="335" y="355"/>
      <point x="351" y="443" type="curve"/>
      <point x="341" y="451" type="line"/>
      <point x="287" y="420"/>
      <point x="230" y="412"/>
      <point x="138" y="414" type="curve"/>
      <point x="134" y="550" type="line" smooth="yes"/>
      <point x="132" y="605"/>
      <point x="139" y="615"/>
      <point x="142" y="615" type="curve"/>
      <point x="169" y="622"/>
      <point x="212" y="600"/>
      <point x="246" y="578" type="curve"/>
      <point x="329" y="655" type="line"/>
      <point x="330" y="659" type="line"/>
      <point x="291" y="669"/>
      <point x="235" y="689"/>
      <point x="186" y="710" type="curve"/>
      <point x="147" y="669"/>
      <point x="108" y="633"/>
      <point x="48" y="591" type="curve"/>
      <point x="46" y="585"/>
      <point x="51" y="496"/>
      <point x="51" y="437" type="curve"/>
      <point x="51" y="414"/>
      <point x="41" y="387"/>
    </contour>
  </outline>
</glyph>
<glyph name="longs_t" format="1">
  <advance width="537"/>
  <unicode hex="FB05"/>
  <outline>
    <contour>
      <point x="354" y="430" type="curve"/>
      <point x="352" y="357" type="line"/>
      <point x="406" y="359"/>
      <point x="461" y="357"/>
      <point x="515" y="351" type="curve"/>
      <point x="521" y="437" type="line"/>
      <point x="510" y="441" type="line"/>
      <point x="458" y="434"/>
      <point x="406" y="429"/>
    </contour>
    <contour>
      <point x="374" y="166" type="curve"/>
      <point x="374" y="203"/>
      <point x="376" y="542"/>
      <point x="376" y="584" type="curve"/>
      <point x="376" y="636"/>
      <point x="323" y="710"/>
      <point x="236" y="710" type="curve"/>
      <point x="160" y="710"/>
      <point x="83" y="603"/>
      <point x="50" y="492" type="curve"/>
      <point x="44" y="394"/>
      <point x="45" y="139"/>
      <point x="45" y="-5" type="curve"/>
      <point x="158" y="27" type="line"/>
      <point x="160" y="52" type="line"/>
      <point x="148" y="63"/>
      <point x="144" y="74"/>
      <point x="141" y="163" type="curve"/>
      <point x="138" y="263"/>
      <point x="125" y="504"/>
      <point x="134" y="585" type="curve"/>
      <point x="148" y="618"/>
      <point x="169" y="638"/>
      <point x="205" y="638" type="curve"/>
      <point x="264" y="638"/>
      <point x="287" y="578"/>
      <point x="287" y="498" type="curve"/>
      <point x="287" y="405"/>
      <point x="285" y="197"/>
      <point x="283" y="80" type="curve"/>
      <point x="282" y="20"/>
      <point x="323" y="-10"/>
      <point x="363" y="-10" type="curve"/>
      <point x="400" y="-10"/>
      <point x="479" y="54"/>
      <point x="512" y="83" type="curve"/>
      <point x="509" y="112" type="line"/>
      <point x="469" y="88"/>
      <point x="452" y="85"/>
      <point x="430" y="85" type="curve"/>
      <point x="389" y="85"/>
      <point x="374" y="110"/>
    </contour>
  </outline>
</glyph>
<glyph name="M.ss01" format="1">
  <advance width="776"/>
  <outline>
    <contour>
      <point x="234" y="0" type="line"/>
      <point x="59" y="0" type="line"/>
      <point x="81" y="147"/>
      <point x="86" y="507"/>
      <point x="86" y="700" type="curve"/>
      <point x="164" y="700" type="line"/>
      <point x="388" y="343" type="line"/>
      <point x="449" y="427"/>
      <point x="545" y="573"/>
      <point x="622" y="700" type="curve"/>
      <point x="691" y="700" type="line"/>
      <point x="685" y="494"/>
      <point x="686" y="117"/>
      <point x="726" y="10" type="curve"/>
      <point x="726" y="-1" type="line"/>
      <point x="579" y="0" type="line"/>
      <point x="579" y="11" type="line"/>
      <point x="604" y="87"/>
      <point x="605" y="302"/>
      <point x="602" y="580" type="curve"/>
      <point x="518" y="452"/>
      <point x="399" y="277"/>
      <point x="361" y="187" type="curve"/>
      <point x="353" y="187" type="line"/>
      <point x="309" y="292"/>
      <point x="215" y="457"/>
      <point x="134" y="583" type="curve"/>
      <point x="154" y="129" type="line" smooth="yes"/>
      <point x="157" y="58"/>
      <point x="168" y="49"/>
      <point x="234" y="27" type="curve"/>
    </contour>
  </outline>
</glyph>
<glyph name="a_macr" format="1">
  <advance width="368"/>
  <outline>
    <contour>
      <point x="175" y="625" type="curve"/>
      <point x="149" y="585"/>
      <point x="118" y="551"/>
      <point x="96" y="527" type="curve"/>
      <point x="130" y="512" type="line"/>
      <point x="165" y="539"/>
      <point x="193" y="529"/>
      <point x="267" y="508" type="curve"/>
      <point x="282" y="520"/>
      <point x="324" y="577"/>
      <point x="347" y="594" type="curve"/>
      <point x="335" y="609" type="line"/>
      <point x="290" y="607"/>
      <point x="222" y="620"/>
    </contour>
    <component base="a"/>
  </outline>
</glyph>
<glyph name="c_ra" format="1">
  <advance width="352"/>
  <outline>
    <contour>
      <point x="64" y="619" type="curve"/>
      <point x="83" y="625" type="line"/>
      <point x="94" y="567"/>
      <point x="130" y="540"/>
      <point x="168" y="540" type="curve"/>
      <point x="199" y="540"/>
      <point x="232" y="575"/>
      <point x="253" y="608" type="curve"/>
      <point x="265" y="608" type="line"/>
      <point x="295" y="567"/>
      <point x="305" y="573"/>
      <point x="323" y="594" type="curve"/>
      <point x="339" y="582" type="line"/>
      <point x="309" y="545"/>
      <point x="292" y="522"/>
      <point x="263" y="484" type="curve"/>
      <point x="236" y="480"/>
      <point x="220" y="499"/>
      <point x="202" y="521" type="curve"/>
      <point x="174" y="496"/>
      <point x="138" y="481"/>
      <point x="117" y="481" type="curve"/>
      <point x="87" y="481"/>
      <point x="67" y="496"/>
      <point x="61" y="512" type="curve"/>
      <point x="59" y="540"/>
      <point x="62" y="573"/>
    </contour>
    <contour>
      <point x="24" y="290" type="curve"/>
      <point x="15" y="230"/>
      <point x="11" y="150"/>
      <point x="24" y="70" type="curve"/>
      <point x="34" y="42"/>
      <point x="93" y="-6"/>
      <point x="145" y="-10" type="curve"/>
      <point x="198" y="6"/>
      <point x="257" y="46"/>
      <point x="312" y="93" type="curve"/>
      <point x="300" y="121" type="line"/>
      <point x="269" y="103"/>
      <point x="241" y="93"/>
      <point x="200" y="93" type="curve"/>
      <point x="130" y="93"/>
      <point x="102" y="161"/>
      <point x="102" y="228" type="curve"/>
      <point x="102" y="294"/>
      <point x="143" y="334"/>
      <point x="174" y="349" type="curve"/>
      <point x="195" y="346"/>
      <point x="230" y="317"/>
      <point x="257" y="299" type="curve"/>
      <point x="327" y="387" type="line"/>
      <point x="326" y="399" type="line"/>
      <point x="297" y="401"/>
      <point x="218" y="427"/>
      <point x="184" y="430" type="curve"/>
      <point x="142" y="416"/>
      <point x="31" y="307"/>
    </contour>
  </outline>
</glyph>
<glyph name="c_t_macr" format="1">
  <advance width="578"/>
  <outline>
    <contour>
      <point x="431" y="631" type="curve"/>
      <point x="375" y="627"/>
      <point x="206" y="622"/>
      <point x="168" y="622" type="curve"/>
      <point x="133" y="622"/>
      <point x="88" y="631"/>
      <point x="73" y="651" type="curve"/>
      <point x="45" y="640" type="line"/>
      <point x="61" y="596"/>
      <point x="134" y="528"/>
      <point x="180" y="527" type="curve"/>
      <point x="239" y="526"/>
      <point x="287" y="539"/>
      <point x="404" y="540" type="curve"/>
      <point x="438" y="540"/>
      <point x="483" y="526"/>
      <point x="512" y="494" type="curve"/>
      <point x="542" y="506" type="line"/>
      <point x="515" y="558"/>
      <point x="471" y="604"/>
    </contour>
    <contour>
      <point x="404" y="430" type="curve"/>
      <point x="391" y="340" type="line"/>
      <point x="448" y="347"/>
      <point x="505" y="347"/>
      <point x="562" y="340" type="curve"/>
      <point x="562" y="437" type="line"/>
      <point x="509" y="425"/>
      <point x="457" y="426"/>
    </contour>
    <contour>
      <point x="421" y="156" type="curve"/>
      <point x="410" y="256"/>
      <point x="426" y="410"/>
      <point x="440" y="494" type="curve"/>
      <point x="425" y="499" type="line"/>
      <point x="371" y="453"/>
      <point x="320" y="417"/>
      <point x="270" y="391" type="curve"/>
      <point x="270" y="380" type="line"/>
      <point x="288" y="374"/>
      <point x="305" y="360"/>
      <point x="323" y="340" type="curve"/>
      <point x="322" y="257"/>
      <point x="309" y="161"/>
      <point x="309" y="90" type="curve"/>
      <point x="309" y="30"/>
      <point x="323" y="-10"/>
      <point x="393" y="-10" type="curve"/>
      <point x="430" y="-10"/>
      <point x="487" y="26"/>
      <point x="546" y="65" type="curve"/>
      <point x="537" y="92" type="line"/>
      <point x="513" y="87"/>
      <point x="501" y="85"/>
      <point x="479" y="85" type="curve"/>
      <point x="436" y="85"/>
      <point x="427" y="100"/>
    </contour>
    <component base="c"/>
  </outline>
</glyph>
<glyph name="etc" format="1">
  <advance width="948"/>
  <outline>
    <contour>
      <point x="452" y="190" type="curve"/>
      <point x="452" y="74"/>
      <point x="472" y="-3"/>
      <point x="563" y="-10" type="curve"/>
      <point x="616" y="21"/>
      <point x="649" y="55"/>
      <point x="696" y="92" type="curve"/>
      <point x="682" y="118" type="line"/>
      <point x="665" y="112"/>
      <point x="650" y="101"/>
      <point x="620" y="101" type="curve"/>
      <point x="583" y="101"/>
      <point x="546" y="166"/>
      <point x="546" y="263" type="curve"/>
      <point x="546" y="292"/>
      <point x="548" y="321"/>
      <point x="556" y="340" type="curve"/>
      <point x="593" y="338"/>
      <point x="627" y="325"/>
      <point x="661" y="310" type="curve"/>
      <point x="767" y="373" type="line"/>
      <point x="766" y="386" type="line"/>
      <point x="736" y="404"/>
      <point x="645" y="435"/>
      <point x="611" y="440" type="curve"/>
      <point x="579" y="426"/>
      <point x="489" y="347"/>
      <point x="481" y="330" type="curve"/>
      <point x="461" y="288"/>
      <point x="452" y="234"/>
    </contour>
    <contour>
      <point x="441" y="421" type="curve"/>
      <point x="432" y="433" type="line"/>
      <point x="348" y="419"/>
      <point x="271" y="423"/>
      <point x="187" y="438" type="curve"/>
      <point x="139" y="411"/>
      <point x="87" y="345"/>
      <point x="68" y="303" type="curve"/>
      <point x="60" y="268"/>
      <point x="66" y="202"/>
      <point x="115" y="192" type="curve"/>
      <point x="168" y="276" type="line"/>
      <point x="168" y="284" type="line"/>
      <point x="139" y="288"/>
      <point x="120" y="322"/>
      <point x="128" y="340" type="curve"/>
      <point x="168" y="355"/>
      <point x="269" y="357"/>
      <point x="339" y="340" type="curve"/>
      <point x="280" y="241"/>
      <point x="228" y="120"/>
      <point x="184" y="0" type="curve"/>
      <point x="189" y="-10" type="line"/>
      <point x="391" y="40" type="line"/>
      <point x="386" y="70" type="line"/>
      <point x="365" y="80"/>
      <point x="345" y="75"/>
      <point x="345" y="163" type="curve"/>
      <point x="345" y="260"/>
      <point x="420" y="397"/>
    </contour>
    <contour>
      <point x="368" y="710" type="curve"/>
      <point x="385" y="698" type="line"/>
      <point x="353" y="654"/>
      <point x="372" y="621"/>
      <point x="425" y="621" type="curve"/>
      <point x="460" y="621"/>
      <point x="488" y="637"/>
      <point x="557" y="710" type="curve"/>
      <point x="581" y="697" type="line"/>
      <point x="538" y="653"/>
      <point x="529" y="613"/>
      <point x="591" y="613" type="curve"/>
      <point x="641" y="613"/>
      <point x="706" y="631"/>
      <point x="763" y="680" type="curve"/>
      <point x="783" y="665" type="line"/>
      <point x="725" y="607"/>
      <point x="645" y="553"/>
      <point x="549" y="553" type="curve"/>
      <point x="483" y="553"/>
      <point x="464" y="579"/>
      <point x="452" y="599" type="curve"/>
      <point x="415" y="581"/>
      <point x="387" y="564"/>
      <point x="338" y="564" type="curve"/>
      <point x="302" y="564"/>
      <point x="280" y="577"/>
      <point x="280" y="606" type="curve"/>
      <point x="280" y="642"/>
      <point x="317" y="672"/>
    </contour>
    <contour>
      <point x="32" y="561" type="curve"/>
      <point x="23" y="573" type="line"/>
      <point x="49" y="650" type="line"/>
      <point x="169" y="664"/>
      <point x="201" y="607"/>
      <point x="263" y="607" type="curve"/>
      <point x="280" y="607"/>
      <point x="305" y="624"/>
      <point x="315" y="633" type="curve"/>
      <point x="332" y="608" type="line"/>
      <point x="304" y="588"/>
      <point x="286" y="577"/>
      <point x="251" y="577" type="curve"/>
      <point x="187" y="577"/>
      <point x="101" y="628"/>
    </contour>
    <component base="period" xOffset="674" yOffset="65"/>
  </outline>
</glyph>
<glyph name="etfin" format="1">
  <advance width="314"/>
  <outline>
    <contour>
      <point x="26" y="340" type="curve"/>
      <point x="19" y="371" type="line"/>
      <point x="212" y="440" type="line"/>
      <point x="257" y="421"/>
      <point x="284" y="384"/>
      <point x="284" y="338" type="curve"/>
      <point x="284" y="275"/>
      <point x="225" y="217"/>
      <point x="180" y="169" type="curve"/>
      <point x="256" y="122"/>
      <point x="284" y="69"/>
      <point x="284" y="3" type="curve"/>
      <point x="284" y="-92"/>
      <point x="195" y="-219"/>
      <point x="42" y="-340" type="curve"/>
      <point x="10" y="-304" type="line"/>
      <point x="86" y="-239"/>
      <point x="194" y="-142"/>
      <point x="194" y="-53" type="curve"/>
      <point x="194" y="4"/>
      <point x="166" y="48"/>
      <point x="59" y="87" type="curve"/>
      <point x="53" y="102" type="line"/>
      <point x="154" y="180"/>
      <point x="179" y="221"/>
      <point x="179" y="258" type="curve"/>
      <point x="179" y="304"/>
      <point x="116" y="346"/>
    </contour>
  </outline>
</glyph>
<glyph name="f_f" format="1">
  <advance width="464"/>
  <outline>
    <contour>
      <point x="504" y="677" type="curve"/>
      <point x="466" y="592" type="line"/>
      <point x="455" y="592" type="line"/>
      <point x="441" y="610"/>
      <point x="398" y="630"/>
      <point x="371" y="621" type="curve"/>
      <point x="358" y="583"/>
      <point x="356" y="521"/>
      <point x="356" y="463" type="curve"/>
      <point x="356" y="387"/>
      <point x="352" y="89"/>
      <point x="371" y="19" type="curve"/>
      <point x="369" y="0" type="line"/>
      <point x="333" y="1"/>
      <point x="288" y="1"/>
      <point x="253" y="-1" type="curve"/>
      <point x="251" y="3" type="line"/>
      <point x="254" y="71"/>
      <point x="261" y="288"/>
      <point x="261" y="337" type="curve"/>
      <point x="244" y="356" type="line"/>
      <point x="244" y="362" type="line"/>
      <point x="258" y="392"/>
      <point x="271" y="428"/>
      <point x="276" y="477" type="curve"/>
      <point x="289" y="596"/>
      <point x="356" y="710"/>
      <point x="424" y="710" type="curve"/>
      <point x="463" y="710"/>
      <point x="485" y="690"/>
    </contour>
    <contour>
      <point x="316" y="340" type="curve"/>
      <point x="316" y="405" type="line"/>
      <point x="430" y="405" type="line" smooth="yes"/>
      <point x="446" y="405"/>
      <point x="470" y="408"/>
      <point x="479" y="425" type="curve"/>
      <point x="495" y="425" type="line"/>
      <point x="485" y="335" type="line"/>
      <point x="439" y="338"/>
      <point x="382" y="343"/>
    </contour>
    <contour>
      <point x="285" y="705" type="curve"/>
      <point x="287" y="677"/>
      <point x="280" y="637"/>
      <point x="276" y="601" type="curve"/>
      <point x="265" y="601" type="line"/>
      <point x="241" y="619"/>
      <point x="198" y="635"/>
      <point x="162" y="626" type="curve"/>
      <point x="143" y="541"/>
      <point x="144" y="85"/>
      <point x="162" y="20" type="curve"/>
      <point x="160" y="1" type="line"/>
      <point x="144" y="3"/>
      <point x="88" y="2"/>
      <point x="53" y="-3" type="curve"/>
      <point x="51" y="1" type="line"/>
      <point x="54" y="69"/>
      <point x="57" y="261"/>
      <point x="57" y="337" type="curve"/>
      <point x="57" y="446"/>
      <point x="68" y="553"/>
      <point x="133" y="672" type="curve"/>
      <point x="172" y="691"/>
      <point x="216" y="712"/>
    </contour>
    <contour>
      <point x="115" y="339" type="curve"/>
      <point x="115" y="404" type="line"/>
      <point x="294" y="404" type="line"/>
      <point x="294" y="339" type="line"/>
      <point x="248" y="342"/>
      <point x="181" y="342"/>
    </contour>
  </outline>
</glyph>
<glyph name="f_i.ss01" format="1">
  <advance width="431"/>
  <outline>
    <contour>
      <point x="349" y="628" type="line"/>
      <point x="292" y="490" type="line"/>
      <point x="314" y="482" type="line"/>
      <point x="411" y="620" type="line"/>
      <point x="411" y="628" type="line"/>
    </contour>
    <component base="f_i"/>
  </outline>
</glyph>
<glyph name="g_e" format="1">
  <advance width="435"/>
  <outline>
    <contour>
      <point x="160" y="567" type="curve"/>
      <point x="160" y="637"/>
      <point x="227" y="700"/>
      <point x="286" y="710" type="curve"/>
      <point x="320" y="702"/>
      <point x="354" y="690"/>
      <point x="386" y="669" type="curve"/>
      <point x="404" y="680" type="line"/>
      <point x="411" y="659" type="line"/>
      <point x="243" y="535" type="line"/>
      <point x="227" y="553" type="line"/>
      <point x="314" y="620" type="line"/>
      <point x="290" y="650"/>
      <point x="265" y="656"/>
      <point x="256" y="656" type="curve"/>
      <point x="238" y="656"/>
      <point x="226" y="643"/>
      <point x="226" y="605" type="curve"/>
      <point x="226" y="546"/>
      <point x="267" y="526"/>
      <point x="288" y="526" type="curve"/>
      <point x="335" y="526"/>
      <point x="359" y="559"/>
      <point x="385" y="607" type="curve"/>
      <point x="405" y="582" type="line"/>
      <point x="377" y="521"/>
      <point x="331" y="474"/>
      <point x="259" y="474" type="curve"/>
      <point x="209" y="474"/>
      <point x="160" y="506"/>
    </contour>
    <component base="g"/>
  </outline>
</glyph>
<glyph name="g_ring" format="1">
  <advance width="442"/>
  <outline>
    <contour>
      <point x="315" y="710" type="curve"/>
      <point x="391" y="710"/>
      <point x="442" y="673"/>
      <point x="442" y="596" type="curve"/>
      <point x="442" y="523"/>
      <point x="366" y="477"/>
      <point x="293" y="477" type="curve"/>
      <point x="216" y="477"/>
      <point x="166" y="520"/>
      <point x="166" y="590" type="curve"/>
      <point x="166" y="650"/>
      <point x="221" y="710"/>
    </contour>
    <contour>
      <point x="321" y="515" type="curve"/>
      <point x="347" y="515"/>
      <point x="363" y="541"/>
      <point x="363" y="575" type="curve"/>
      <point x="363" y="622"/>
      <point x="336" y="670"/>
      <point x="288" y="670" type="curve"/>
      <point x="254" y="670"/>
      <point x="242" y="642"/>
      <point x="242" y="607" type="curve"/>
      <point x="242" y="565"/>
      <point x="276" y="515"/>
    </contour>
    <component base="g"/>
  </outline>
</glyph>
<glyph name="g_urrot" format="1">
  <advance width="456"/>
  <outline>
    <contour>
      <point x="387" y="495" type="curve"/>
      <point x="388" y="529" type="line"/>
      <point x="308" y="535"/>
      <point x="305" y="536"/>
      <point x="313" y="570" type="curve"/>
      <point x="320" y="598"/>
      <point x="335" y="632"/>
      <point x="347" y="663" type="curve"/>
      <point x="345" y="673" type="line"/>
      <point x="320" y="673"/>
      <point x="208" y="669"/>
      <point x="174" y="668" type="curve"/>
      <point x="169" y="637" type="line"/>
      <point x="234" y="631"/>
      <point x="236" y="619"/>
      <point x="235" y="584" type="curve"/>
      <point x="234" y="555"/>
      <point x="229" y="538"/>
      <point x="222" y="504" type="curve"/>
      <point x="246" y="506"/>
      <point x="353" y="499"/>
    </contour>
    <component base="g"/>
  </outline>
</glyph>
<glyph name="iota_dieresis" format="1">
  <advance width="251"/>
  <outline>
    <contour>
      <point x="176" y="525" type="curve"/>
      <point x="198" y="525"/>
      <point x="211" y="541"/>
      <point x="211" y="565" type="curve"/>
      <point x="211" y="588"/>
      <point x="198" y="604"/>
      <point x="176" y="604" type="curve"/>
      <point x="155" y="604"/>
      <point x="142" y="588"/>
      <point x="142" y="565" type="curve"/>
      <point x="142" y="541"/>
      <point x="155" y="525"/>
    </contour>
    <contour>
      <point x="79" y="527" type="curve"/>
      <point x="100" y="527"/>
      <point x="111" y="541"/>
      <point x="111" y="563" type="curve"/>
      <point x="111" y="584"/>
      <point x="100" y="600"/>
      <point x="79" y="600" type="curve"/>
      <point x="59" y="600"/>
      <point x="48" y="584"/>
      <point x="48" y="563" type="curve"/>
      <point x="48" y="541"/>
      <point x="59" y="527"/>
    </contour>
    <component base="iota" xOffset="18"/>
  </outline>
</glyph>
<glyph name="l_i" format="1">
  <advance width="404"/>
  <outline>
    <contour>
      <point x="141" y="172" type="curve"/>
      <point x="132" y="313"/>
      <point x="137" y="504"/>
      <point x="144" y="645" type="curve"/>
      <point x="145" y="667"/>
      <point x="148" y="669"/>
      <point x="180" y="676" type="curve"/>
      <point x="180" y="704" type="line"/>
      <point x="25" y="700" type="line"/>
      <point x="25" y="673" type="line"/>
      <point x="58" y="622"/>
      <point x="41" y="252"/>
      <point x="39" y="95" type="curve"/>
      <point x="38" y="47"/>
      <point x="66" y="14"/>
      <point x="116" y="-10" type="curve"/>
      <point x="252" y="68" type="line"/>
      <point x="247" y="93" type="line"/>
      <point x="151" y="72"/>
      <point x="145" y="106"/>
    </contour>
    <contour>
      <point x="394" y="46" type="curve"/>
      <point x="394" y="77" type="line"/>
      <point x="344" y="69"/>
      <point x="345" y="72"/>
      <point x="346" y="158" type="curve"/>
      <point x="347" y="224"/>
      <point x="347" y="317"/>
      <point x="352" y="407" type="curve"/>
      <point x="338" y="420"/>
      <point x="317" y="433"/>
      <point x="295" y="441" type="curve"/>
      <point x="179" y="390" type="line"/>
      <point x="179" y="360" type="line"/>
      <point x="234" y="367"/>
      <point x="248" y="334"/>
      <point x="248" y="308" type="curve"/>
      <point x="248" y="231"/>
      <point x="246" y="152"/>
      <point x="236" y="40" type="curve"/>
      <point x="242" y="21"/>
      <point x="261" y="0"/>
      <point x="282" y="-10" type="curve"/>
      <point x="320" y="7"/>
      <point x="340" y="22"/>
    </contour>
  </outline>
</glyph>
<glyph name="longs_strok" format="1">
  <advance width="391"/>
  <outline>
    <contour>
      <point x="6" y="-53" type="curve"/>
      <point x="-4" y="-50" type="line"/>
      <point x="0" y="0" type="line"/>
      <point x="65" y="32"/>
      <point x="278" y="164"/>
      <point x="278" y="294" type="curve"/>
      <point x="278" y="348"/>
      <point x="237" y="373"/>
      <point x="172" y="381" type="curve"/>
      <point x="172" y="406" type="line"/>
      <point x="274" y="440" type="line"/>
      <point x="322" y="423"/>
      <point x="374" y="383"/>
      <point x="374" y="325" type="curve"/>
      <point x="374" y="224"/>
      <point x="130" y="27"/>
    </contour>
    <contour>
      <point x="373" y="680" type="curve"/>
      <point x="372" y="669" type="line"/>
      <point x="299" y="586" type="line"/>
      <point x="287" y="586" type="line"/>
      <point x="263" y="618"/>
      <point x="231" y="638"/>
      <point x="186" y="620" type="curve"/>
      <point x="179" y="599"/>
      <point x="176" y="559"/>
      <point x="176" y="520" type="curve"/>
      <point x="176" y="390"/>
      <point x="184" y="196"/>
      <point x="190" y="2" type="curve"/>
      <point x="75" y="-5" type="line"/>
      <point x="76" y="61"/>
      <point x="82" y="127"/>
      <point x="82" y="236" type="curve"/>
      <point x="82" y="370"/>
      <point x="91" y="379"/>
      <point x="57" y="421" type="curve"/>
      <point x="57" y="436" type="line"/>
      <point x="97" y="465"/>
      <point x="90" y="489"/>
      <point x="116" y="561" type="curve"/>
      <point x="131" y="602"/>
      <point x="174" y="709"/>
      <point x="215" y="710" type="curve"/>
      <point x="259" y="711"/>
      <point x="324" y="698"/>
    </contour>
  </outline>
</glyph>
<glyph name="m_ring" format="1">
  <advance width="648"/>
  <outline>
    <contour>
      <point x="475" y="710" type="curve"/>
      <point x="551" y="710"/>
      <point x="602" y="673"/>
      <point x="602" y="596" type="curve"/>
      <point x="602" y="523"/>
      <point x="526" y="477"/>
      <point x="453" y="477" type="curve"/>
      <point x="376" y="477"/>
      <point x="326" y="520"/>
      <point x="326" y="590" type="curve"/>
      <point x="326" y="650"/>
      <point x="381" y="710"/>
    </contour>
    <contour>
      <point x="481" y="515" type="curve"/>
      <point x="507" y="515"/>
      <point x="523" y="541"/>
      <point x="523" y="575" type="curve"/>
      <point x="523" y="622"/>
      <point x="496" y="670"/>
      <point x="448" y="670" type="curve"/>
      <point x="414" y="670"/>
      <point x="402" y="642"/>
      <point x="402" y="607" type="curve"/>
      <point x="402" y="565"/>
      <point x="436" y="515"/>
    </contour>
    <component base="m"/>
  </outline>
</glyph>
<glyph name="n_i" format="1">
  <advance width="612"/>
  <outline>
    <contour>
      <point x="53" y="-5" type="curve"/>
      <point x="61" y="-10" type="line"/>
      <point x="168" y="11" type="line"/>
      <point x="162" y="74"/>
      <point x="159" y="114"/>
      <point x="159" y="203" type="curve"/>
      <point x="159" y="280"/>
      <point x="159" y="358"/>
      <point x="159" y="435" type="curve"/>
      <point x="148" y="440" type="line"/>
      <point x="56" y="384" type="line"/>
      <point x="62" y="316"/>
      <point x="59" y="247"/>
      <point x="59" y="179" type="curve"/>
      <point x="59" y="86"/>
      <point x="56" y="27"/>
    </contour>
    <contour>
      <point x="246" y="-5" type="curve"/>
      <point x="252" y="-10" type="line"/>
      <point x="305" y="5"/>
      <point x="357" y="16"/>
      <point x="410" y="21" type="curve"/>
      <point x="410" y="54" type="line"/>
      <point x="373" y="62"/>
      <point x="370" y="71"/>
      <point x="367" y="108" type="curve"/>
      <point x="361" y="185"/>
      <point x="367" y="273"/>
      <point x="367" y="350" type="curve"/>
      <point x="367" y="394"/>
      <point x="304" y="431"/>
      <point x="279" y="440" type="curve"/>
      <point x="253" y="433"/>
      <point x="178" y="388"/>
      <point x="140" y="348" type="curve"/>
      <point x="154" y="316" type="line"/>
      <point x="175" y="330"/>
      <point x="188" y="340"/>
      <point x="212" y="340" type="curve"/>
      <point x="260" y="340"/>
      <point x="269" y="306"/>
      <point x="269" y="248" type="curve"/>
      <point x="269" y="173"/>
      <point x="265" y="81"/>
    </contour>
    <contour>
      <point x="600" y="26" type="curve"/>
      <point x="600" y="50" type="line"/>
      <point x="569" y="80"/>
      <point x="569" y="83"/>
      <point x="570" y="140" type="curve"/>
      <point x="571" y="206"/>
      <point x="572" y="288"/>
      <point x="576" y="377" type="curve"/>
      <point x="558" y="408"/>
      <point x="542" y="426"/>
      <point x="499" y="441" type="curve"/>
      <point x="351" y="342" type="line"/>
      <point x="363" y="302" type="line"/>
      <point x="386" y="327"/>
      <point x="407" y="336"/>
      <point x="426" y="336" type="curve"/>
      <point x="460" y="336"/>
      <point x="477" y="293"/>
      <point x="477" y="222" type="curve"/>
      <point x="477" y="145"/>
      <point x="472" y="102"/>
      <point x="462" y="9" type="curve"/>
      <point x="468" y="3"/>
      <point x="492" y="-4"/>
      <point x="506" y="-10" type="curve"/>
      <point x="536" y="3"/>
      <point x="565" y="14"/>
    </contour>
    <contour>
      <point x="540" y="638" type="line"/>
      <point x="504" y="530" type="line"/>
      <point x="535" y="532" type="line"/>
      <point x="602" y="629" type="line"/>
      <point x="602" y="637" type="line"/>
    </contour>
  </outline>
</glyph>
<glyph name="n_urrot" format="1">
  <advance width="448"/>
  <outline>
    <contour>
      <point x="318" y="494" type="curve"/>
      <point x="319" y="524" type="line"/>
      <point x="269" y="530"/>
      <point x="245" y="525"/>
      <point x="254" y="582" type="curve"/>
      <point x="259" y="611"/>
      <point x="279" y="660"/>
      <point x="288" y="694" type="curve"/>
      <point x="278" y="703" type="line"/>
      <point x="251" y="701"/>
      <point x="153" y="679"/>
      <point x="117" y="674" type="curve"/>
      <point x="117" y="642" type="line"/>
      <point x="174" y="648"/>
      <point x="176" y="645"/>
      <point x="174" y="628" type="curve"/>
      <point x="167" y="568"/>
      <point x="161" y="518"/>
      <point x="154" y="482" type="curve"/>
      <point x="181" y="488"/>
      <point x="301" y="493"/>
    </contour>
    <component base="n"/>
  </outline>
</glyph>
<glyph name="p.calt" format="1">
  <advance width="468"/>
  <outline>
    <contour>
      <point x="165" y="367" type="curve"/>
      <point x="165" y="329" type="line"/>
      <point x="181" y="338"/>
      <point x="192" y="348"/>
      <point x="224" y="348" type="curve"/>
      <point x="358" y="348"/>
      <point x="411" y="153"/>
      <point x="316" y="67" type="curve"/>
      <point x="262" y="67"/>
      <point x="192" y="80"/>
      <point x="162" y="96" type="curve"/>
      <point x="156" y="3" type="line"/>
      <point x="197" y="-4"/>
      <point x="235" y="-10"/>
      <point x="268" y="-10" type="curve"/>
      <point x="336" y="22"/>
      <point x="448" y="107"/>
      <point x="448" y="237" type="curve"/>
      <point x="448" y="349"/>
      <point x="379" y="430"/>
      <point x="282" y="441" type="curve"/>
      <point x="236" y="418"/>
      <point x="199" y="391"/>
    </contour>
    <contour>
      <point x="162" y="27" type="curve"/>
      <point x="171" y="430" type="line"/>
      <point x="164" y="440" type="line"/>
      <point x="53" y="385" type="line"/>
      <point x="68" y="246"/>
      <point x="65" y="-43"/>
      <point x="53" y="-340" type="curve"/>
      <point x="175" y="-314" type="line"/>
      <point x="173" y="-295"/>
      <point x="159" y="-99"/>
    </contour>
  </outline>
</glyph>
<glyph name="p_macr" format="1">
  <advance width="461"/>
  <outline>
    <contour>
      <point x="186" y="636" type="curve"/>
      <point x="148" y="593"/>
      <point x="133" y="570"/>
      <point x="110" y="524" type="curve"/>
      <point x="143" y="514" type="line"/>
      <point x="187" y="566"/>
      <point x="231" y="554"/>
      <point x="307" y="561" type="curve"/>
      <point x="324" y="581"/>
      <point x="342" y="604"/>
      <point x="375" y="655" type="curve"/>
      <point x="345" y="663" type="line"/>
      <point x="308" y="637"/>
      <point x="269" y="638"/>
    </contour>
    <component base="p"/>
  </outline>
</glyph>
<glyph name="p_urrot" format="1">
  <advance width="461"/>
  <outline>
    <contour>
      <point x="266" y="502" type="curve"/>
      <point x="263" y="532" type="line"/>
      <point x="213" y="530"/>
      <point x="203" y="526"/>
      <point x="211" y="575" type="curve"/>
      <point x="216" y="605"/>
      <point x="227" y="655"/>
      <point x="231" y="690" type="curve"/>
      <point x="220" y="698" type="line"/>
      <point x="194" y="692"/>
      <point x="98" y="666"/>
      <point x="63" y="656" type="curve"/>
      <point x="67" y="624" type="line"/>
      <point x="124" y="629"/>
      <point x="125" y="627"/>
      <point x="127" y="580" type="curve"/>
      <point x="128" y="550"/>
      <point x="127" y="520"/>
      <point x="124" y="483" type="curve"/>
      <point x="134" y="474" type="line"/>
      <point x="174" y="486"/>
      <point x="254" y="500"/>
    </contour>
    <component base="p"/>
  </outline>
</glyph>
<glyph name="q_ra" format="1">
  <advance width="477"/>
  <outline>
    <contour>
      <point x="157" y="667" type="curve"/>
      <point x="172" y="653" type="line"/>
      <point x="134" y="630"/>
      <point x="133" y="588"/>
      <point x="171" y="588" type="curve"/>
      <point x="194" y="588"/>
      <point x="224" y="595"/>
      <point x="266" y="646" type="curve"/>
      <point x="283" y="667" type="line"/>
      <point x="306" y="659" type="line"/>
      <point x="282" y="620"/>
      <point x="281" y="588"/>
      <point x="318" y="588" type="curve"/>
      <point x="355" y="588"/>
      <point x="391" y="609"/>
      <point x="426" y="648" type="curve"/>
      <point x="451" y="635" type="line"/>
      <point x="414" y="584"/>
      <point x="341" y="511"/>
      <point x="279" y="511" type="curve"/>
      <point x="247" y="511"/>
      <point x="226" y="538"/>
      <point x="218" y="560" type="curve"/>
      <point x="191" y="541"/>
      <point x="148" y="511"/>
      <point x="112" y="511" type="curve"/>
      <point x="85" y="511"/>
      <point x="63" y="523"/>
      <point x="63" y="562" type="curve"/>
      <point x="63" y="588"/>
      <point x="97" y="637"/>
    </contour>
    <component base="q"/>
  </outline>
</glyph>
<glyph name="q_ring" format="1">
  <advance width="440"/>
  <outline>
    <contour>
      <point x="162" y="-10" type="curve"/>
      <point x="291" y="53" type="line"/>
      <point x="292" y="89" type="line"/>
      <point x="168" y="75"/>
      <point x="88" y="117"/>
      <point x="88" y="254" type="curve"/>
      <point x="88" y="319"/>
      <point x="117" y="361"/>
      <point x="160" y="361" type="curve"/>
      <point x="211" y="361"/>
      <point x="284" y="334"/>
      <point x="284" y="193" type="curve"/>
      <point x="284" y="69"/>
      <point x="275" y="-157"/>
      <point x="264" y="-340" type="curve"/>
      <point x="387" y="-308" type="line"/>
      <point x="376" y="-121"/>
      <point x="363" y="384"/>
      <point x="391" y="452" type="curve"/>
      <point x="372" y="460" type="line"/>
      <point x="338" y="423" type="line"/>
      <point x="311" y="432"/>
      <point x="270" y="440"/>
      <point x="226" y="440" type="curve"/>
      <point x="116" y="440"/>
      <point x="20" y="340"/>
      <point x="20" y="191" type="curve"/>
      <point x="20" y="74"/>
      <point x="55" y="10"/>
    </contour>
    <contour>
      <point x="297" y="720" type="curve"/>
      <point x="373" y="720"/>
      <point x="424" y="683"/>
      <point x="424" y="606" type="curve"/>
      <point x="424" y="533"/>
      <point x="348" y="487"/>
      <point x="275" y="487" type="curve"/>
      <point x="198" y="487"/>
      <point x="148" y="530"/>
      <point x="148" y="600" type="curve"/>
      <point x="148" y="660"/>
      <point x="203" y="720"/>
    </contour>
    <contour>
      <point x="303" y="525" type="curve"/>
      <point x="329" y="525"/>
      <point x="345" y="551"/>
      <point x="345" y="585" type="curve"/>
      <point x="345" y="632"/>
      <point x="318" y="680"/>
      <point x="270" y="680" type="curve"/>
      <point x="236" y="680"/>
      <point x="224" y="652"/>
      <point x="224" y="617" type="curve"/>
      <point x="224" y="575"/>
      <point x="258" y="525"/>
    </contour>
  </outline>
</glyph>
<glyph name="q_strok_macr" format="1">
  <advance width="628"/>
  <outline>
    <contour>
      <point x="478" y="534" type="curve"/>
      <point x="504" y="564"/>
      <point x="543" y="601"/>
      <point x="595" y="649" type="curve"/>
      <point x="567" y="661" type="line"/>
      <point x="507" y="614"/>
      <point x="493" y="624"/>
      <point x="313" y="627" type="curve"/>
      <point x="298" y="613"/>
      <point x="231" y="558"/>
      <point x="205" y="524" type="curve"/>
      <point x="226" y="511" type="line"/>
      <point x="274" y="540"/>
      <point x="311" y="541"/>
    </contour>
    <component base="q_strok"/>
  </outline>
</glyph>
<glyph name="q_urrot" format="1">
  <advance width="440"/>
  <outline>
    <contour>
      <point x="356" y="502" type="curve"/>
      <point x="353" y="532" type="line"/>
      <point x="303" y="530"/>
      <point x="293" y="526"/>
      <point x="301" y="575" type="curve"/>
      <point x="306" y="605"/>
      <point x="317" y="655"/>
      <point x="321" y="690" type="curve"/>
      <point x="310" y="698" type="line"/>
      <point x="284" y="692"/>
      <point x="188" y="666"/>
      <point x="153" y="656" type="curve"/>
      <point x="157" y="624" type="line"/>
      <point x="214" y="629"/>
      <point x="215" y="627"/>
      <point x="217" y="580" type="curve"/>
      <point x="218" y="550"/>
      <point x="217" y="520"/>
      <point x="214" y="483" type="curve"/>
      <point x="224" y="474" type="line"/>
      <point x="264" y="486"/>
      <point x="344" y="500"/>
    </contour>
    <component base="q"/>
  </outline>
</glyph>
<glyph name="r.calt" format="1">
  <advance width="287"/>
  <outline>
    <contour>
      <point x="15" y="-5" type="curve"/>
      <point x="131" y="11" type="line"/>
      <point x="127" y="62"/>
      <point x="123" y="146"/>
      <point x="123" y="203" type="curve"/>
      <point x="123" y="429" type="line"/>
      <point x="114" y="440" type="line"/>
      <point x="19" y="403" type="line"/>
      <point x="23" y="328"/>
      <point x="23" y="254"/>
      <point x="23" y="179" type="curve"/>
      <point x="23" y="106"/>
      <point x="18" y="27"/>
    </contour>
    <contour>
      <point x="91" y="349" type="curve"/>
      <point x="98" y="300" type="line"/>
      <point x="102" y="315"/>
      <point x="124" y="332"/>
      <point x="143" y="332" type="curve"/>
      <point x="167" y="332"/>
      <point x="201" y="299"/>
      <point x="224" y="274" type="curve"/>
      <point x="307" y="367" type="line"/>
      <point x="281" y="396"/>
      <point x="248" y="424"/>
      <point x="222" y="440" type="curve"/>
      <point x="218" y="440" type="line"/>
      <point x="186" y="404"/>
      <point x="143" y="375"/>
    </contour>
  </outline>
</glyph>
<glyph name="r_i" format="1">
  <advance width="437"/>
  <outline>
    <contour>
      <point x="15" y="-5" type="curve"/>
      <point x="131" y="11" type="line"/>
      <point x="127" y="62"/>
      <point x="123" y="146"/>
      <point x="123" y="203" type="curve"/>
      <point x="123" y="429" type="line"/>
      <point x="114" y="440" type="line"/>
      <point x="18" y="395" type="line"/>
      <point x="21" y="323"/>
      <point x="23" y="251"/>
      <point x="23" y="179" type="curve"/>
      <point x="23" y="106"/>
      <point x="18" y="27"/>
    </contour>
    <contour>
      <point x="91" y="339" type="curve"/>
      <point x="98" y="290" type="line"/>
      <point x="102" y="305"/>
      <point x="124" y="324"/>
      <point x="143" y="324" type="curve"/>
      <point x="167" y="324"/>
      <point x="201" y="299"/>
      <point x="224" y="274" type="curve"/>
      <point x="325" y="367" type="line"/>
      <point x="299" y="396"/>
      <point x="266" y="424"/>
      <point x="240" y="440" type="curve"/>
      <point x="236" y="440" type="line"/>
      <point x="204" y="404"/>
      <point x="143" y="365"/>
    </contour>
    <component base="i.calt" xOffset="241"/>
  </outline>
</glyph>
<glyph name="r_macr" format="1">
  <advance width="324"/>
  <outline>
    <contour>
      <point x="233" y="496" type="curve"/>
      <point x="261" y="524"/>
      <point x="302" y="560"/>
      <point x="331" y="605" type="curve"/>
      <point x="332" y="619"/>
      <point x="317" y="633"/>
      <point x="311" y="635" type="curve"/>
      <point x="279" y="605" type="line"/>
      <point x="288" y="600"/>
      <point x="294" y="594"/>
      <point x="294" y="586" type="curve"/>
      <point x="267" y="573"/>
      <point x="249" y="586"/>
      <point x="133" y="596" type="curve"/>
      <point x="117" y="584"/>
      <point x="62" y="532"/>
      <point x="18" y="501" type="curve"/>
      <point x="37" y="487" type="line"/>
      <point x="88" y="512"/>
      <point x="125" y="511"/>
    </contour>
    <component base="r"/>
  </outline>
</glyph>
<glyph name="t_a" format="1">
  <advance width="589"/>
  <outline>
    <contour>
      <point x="276" y="352" type="line"/>
      <point x="131" y="352" type="line"/>
      <point x="133" y="430" type="line"/>
      <point x="351" y="430" type="line"/>
      <point x="351" y="411" type="line"/>
    </contour>
    <contour>
      <point x="250" y="119" type="curve"/>
      <point x="239" y="84" type="line"/>
      <point x="119" y="-10" type="line"/>
      <point x="69" y="10"/>
      <point x="55" y="32"/>
      <point x="55" y="81" type="curve"/>
      <point x="55" y="103"/>
      <point x="57" y="221"/>
      <point x="57" y="290" type="curve"/>
      <point x="57" y="346"/>
      <point x="52" y="347"/>
      <point x="27" y="366" type="curve"/>
      <point x="27" y="391" type="line"/>
      <point x="74" y="430"/>
      <point x="107" y="466"/>
      <point x="142" y="513" type="curve"/>
      <point x="157" y="508" type="line"/>
      <point x="145" y="421"/>
      <point x="145" y="333"/>
      <point x="145" y="246" type="curve"/>
      <point x="145" y="130"/>
      <point x="167" y="72"/>
    </contour>
    <contour>
      <point x="452" y="-7" type="line"/>
      <point x="452" y="110" type="line"/>
      <point x="453" y="126" type="line"/>
      <point x="453" y="276" type="line"/>
      <point x="447" y="296" type="line"/>
      <point x="454" y="317"/>
      <point x="422" y="340"/>
      <point x="383" y="340" type="curve"/>
      <point x="362" y="340"/>
      <point x="343" y="336"/>
      <point x="321" y="331" type="curve"/>
      <point x="318" y="350" type="line"/>
      <point x="436" y="430" type="line"/>
      <point x="506" y="430"/>
      <point x="554" y="398"/>
      <point x="554" y="361" type="curve"/>
      <point x="554" y="325"/>
      <point x="544" y="259"/>
      <point x="544" y="203" type="curve"/>
      <point x="544" y="115"/>
      <point x="549" y="98"/>
      <point x="579" y="85" type="curve"/>
      <point x="579" y="57" type="line"/>
      <point x="456" y="-10" type="line"/>
    </contour>
    <contour>
      <point x="454" y="146" type="curve"/>
      <point x="457" y="89" type="line"/>
      <point x="416" y="63"/>
      <point x="347" y="18"/>
      <point x="303" y="-10" type="curve"/>
      <point x="258" y="39"/>
      <point x="237" y="89"/>
      <point x="227" y="102" type="curve"/>
      <point x="455" y="308" type="line"/>
      <point x="460" y="272" type="line"/>
      <point x="342" y="174"/>
      <point x="323" y="157"/>
      <point x="323" y="128" type="curve"/>
      <point x="323" y="104"/>
      <point x="355" y="85"/>
      <point x="389" y="85" type="curve"/>
      <point x="410" y="85"/>
      <point x="449" y="102"/>
    </contour>
  </outline>
</glyph>
<glyph name="t_i" format="1">
  <advance width="406"/>
  <outline>
    <contour>
      <point x="259" y="84" type="line"/>
      <point x="270" y="119" type="line"/>
      <point x="167" y="72"/>
      <point x="145" y="130"/>
      <point x="145" y="246" type="curve"/>
      <point x="145" y="333"/>
      <point x="145" y="421"/>
      <point x="150" y="488" type="curve"/>
      <point x="135" y="493" type="line"/>
      <point x="107" y="466"/>
      <point x="74" y="430"/>
      <point x="27" y="391" type="curve"/>
      <point x="27" y="366" type="line"/>
      <point x="52" y="347"/>
      <point x="57" y="346"/>
      <point x="57" y="290" type="curve"/>
      <point x="57" y="221"/>
      <point x="55" y="103"/>
      <point x="55" y="81" type="curve"/>
      <point x="55" y="32"/>
      <point x="69" y="10"/>
      <point x="119" y="-10" type="curve"/>
    </contour>
    <contour>
      <point x="133" y="430" type="line"/>
      <point x="131" y="352" type="line"/>
      <point x="276" y="352" type="line"/>
      <point x="351" y="411" type="line"/>
      <point x="351" y="430" type="line"/>
    </contour>
    <component base="i.calt" xOffset="210"/>
  </outline>
</glyph>
<glyph name="t_u_macr" format="1">
  <advance width="680"/>
  <outline>
    <contour>
      <point x="569" y="500" type="curve"/>
      <point x="595" y="530"/>
      <point x="633" y="569"/>
      <point x="659" y="616" type="curve"/>
      <point x="659" y="630"/>
      <point x="644" y="642"/>
      <point x="637" y="644" type="curve"/>
      <point x="608" y="612" type="line"/>
      <point x="616" y="607"/>
      <point x="623" y="602"/>
      <point x="623" y="594" type="curve"/>
      <point x="597" y="579"/>
      <point x="521" y="591"/>
      <point x="404" y="593" type="curve"/>
      <point x="389" y="579"/>
      <point x="338" y="524"/>
      <point x="296" y="490" type="curve"/>
      <point x="317" y="477" type="line"/>
      <point x="365" y="506"/>
      <point x="402" y="507"/>
    </contour>
    <contour>
      <point x="290" y="119" type="curve"/>
      <point x="299" y="86" type="line"/>
      <point x="119" y="-10" type="line"/>
      <point x="69" y="10"/>
      <point x="55" y="32"/>
      <point x="55" y="81" type="curve"/>
      <point x="55" y="103"/>
      <point x="57" y="221"/>
      <point x="57" y="290" type="curve"/>
      <point x="57" y="346"/>
      <point x="52" y="347"/>
      <point x="27" y="366" type="curve"/>
      <point x="27" y="391" type="line"/>
      <point x="74" y="430"/>
      <point x="107" y="466"/>
      <point x="135" y="493" type="curve"/>
      <point x="150" y="488" type="line"/>
      <point x="145" y="421"/>
      <point x="145" y="333"/>
      <point x="145" y="246" type="curve"/>
      <point x="145" y="130"/>
      <point x="167" y="72"/>
    </contour>
    <contour>
      <point x="296" y="352" type="line"/>
      <point x="131" y="352" type="line"/>
      <point x="133" y="430" type="line"/>
      <point x="351" y="430" type="line"/>
      <point x="351" y="411" type="line"/>
    </contour>
    <component base="u" xOffset="226"/>
  </outline>
</glyph>
<glyph name="u_calt" format="1">
  <advance width="439"/>
  <outline>
    <contour>
      <point x="40" y="419" type="curve"/>
      <point x="140" y="443" type="line"/>
      <point x="145" y="438" type="line"/>
      <point x="136" y="354"/>
      <point x="139" y="232"/>
      <point x="139" y="181" type="curve"/>
      <point x="139" y="110"/>
      <point x="176" y="59"/>
      <point x="288" y="112" type="curve"/>
      <point x="288" y="83" type="line"/>
      <point x="227" y="38"/>
      <point x="172" y="0"/>
      <point x="153" y="-10" type="curve"/>
      <point x="119" y="-10"/>
      <point x="52" y="33"/>
      <point x="42" y="88" type="curve"/>
      <point x="42" y="229"/>
      <point x="42" y="301"/>
    </contour>
    <contour>
      <point x="280" y="-9" type="line"/>
      <point x="284" y="101" type="line"/>
      <point x="284" y="138"/>
      <point x="284" y="316"/>
      <point x="284" y="347" type="curve"/>
      <point x="284" y="373"/>
      <point x="263" y="380"/>
      <point x="239" y="387" type="curve"/>
      <point x="237" y="419" type="line"/>
      <point x="382" y="443" type="line"/>
      <point x="387" y="438" type="line"/>
      <point x="378" y="354"/>
      <point x="381" y="182"/>
      <point x="381" y="131" type="curve"/>
      <point x="381" y="90"/>
      <point x="398" y="94"/>
      <point x="421" y="88" type="curve"/>
      <point x="422" y="63" type="line"/>
      <point x="288" y="-15" type="line"/>
    </contour>
  </outline>
</glyph>
<glyph name="u_urrot" format="1">
  <advance width="438"/>
  <outline>
    <contour>
      <point x="318" y="494" type="curve"/>
      <point x="319" y="524" type="line"/>
      <point x="269" y="530"/>
      <point x="245" y="525"/>
      <point x="254" y="582" type="curve"/>
      <point x="259" y="611"/>
      <point x="279" y="660"/>
      <point x="288" y="694" type="curve"/>
      <point x="278" y="703" type="line"/>
      <point x="251" y="701"/>
      <point x="153" y="679"/>
      <point x="117" y="674" type="curve"/>
      <point x="117" y="642" type="line"/>
      <point x="174" y="648"/>
      <point x="176" y="645"/>
      <point x="174" y="628" type="curve"/>
      <point x="167" y="568"/>
      <point x="161" y="518"/>
      <point x="154" y="482" type="curve"/>
      <point x="181" y="488"/>
      <point x="301" y="493"/>
    </contour>
    <contour>
      <point x="5" y="402" type="curve"/>
      <point x="5" y="429" type="line"/>
      <point x="161" y="431" type="line"/>
      <point x="166" y="422" type="line"/>
      <point x="152" y="364"/>
      <point x="158" y="237"/>
      <point x="158" y="166" type="curve"/>
      <point x="158" y="106"/>
      <point x="194" y="85"/>
      <point x="239" y="85" type="curve"/>
      <point x="264" y="85"/>
      <point x="304" y="102"/>
      <point x="334" y="129" type="curve"/>
      <point x="334" y="83" type="line"/>
      <point x="274" y="56"/>
      <point x="217" y="12"/>
      <point x="157" y="-10" type="curve"/>
      <point x="95" y="10"/>
      <point x="69" y="44"/>
      <point x="58" y="88" type="curve"/>
      <point x="58" y="132"/>
      <point x="58" y="317"/>
      <point x="58" y="338" type="curve"/>
      <point x="58" y="374"/>
      <point x="57" y="387"/>
    </contour>
    <contour>
      <point x="286" y="71" type="curve"/>
      <point x="286" y="108"/>
      <point x="286" y="235"/>
      <point x="286" y="326" type="curve"/>
      <point x="286" y="376"/>
      <point x="281" y="379"/>
      <point x="261" y="392" type="curve"/>
      <point x="261" y="419" type="line"/>
      <point x="408" y="434" type="line"/>
      <point x="413" y="413" type="line"/>
      <point x="393" y="385"/>
      <point x="391" y="386"/>
      <point x="389" y="347" type="curve"/>
      <point x="385" y="276"/>
      <point x="386" y="174"/>
      <point x="386" y="141" type="curve"/>
      <point x="386" y="100"/>
      <point x="387" y="92"/>
      <point x="423" y="74" type="curve"/>
      <point x="423" y="49" type="line"/>
      <point x="324" y="-15" type="line"/>
      <point x="306" y="6"/>
      <point x="286" y="34"/>
    </contour>
  </outline>
</glyph>
<glyph name="x_ring" format="1">
  <advance width="500"/>
  <outline>
    <contour>
      <point x="293" y="710" type="curve"/>
      <point x="369" y="710"/>
      <point x="420" y="673"/>
      <point x="420" y="596" type="curve"/>
      <point x="420" y="523"/>
      <point x="344" y="477"/>
      <point x="271" y="477" type="curve"/>
      <point x="194" y="477"/>
      <point x="144" y="520"/>
      <point x="144" y="590" type="curve"/>
      <point x="144" y="650"/>
      <point x="199" y="710"/>
    </contour>
    <contour>
      <point x="301" y="515" type="curve"/>
      <point x="327" y="515"/>
      <point x="343" y="541"/>
      <point x="343" y="575" type="curve"/>
      <point x="343" y="622"/>
      <point x="316" y="670"/>
      <point x="268" y="670" type="curve"/>
      <point x="234" y="670"/>
      <point x="222" y="642"/>
      <point x="222" y="607" type="curve"/>
      <point x="222" y="565"/>
      <point x="256" y="515"/>
    </contour>
    <component base="x"/>
  </outline>
</glyph>
<glyph name="x_urrot" format="1">
  <advance width="500"/>
  <outline>
    <contour>
      <point x="312" y="487" type="curve"/>
      <point x="309" y="514" type="line"/>
      <point x="263" y="512"/>
      <point x="254" y="508"/>
      <point x="261" y="554" type="curve"/>
      <point x="265" y="582"/>
      <point x="275" y="628"/>
      <point x="280" y="660" type="curve"/>
      <point x="269" y="667" type="line"/>
      <point x="246" y="662"/>
      <point x="157" y="638"/>
      <point x="125" y="629" type="curve"/>
      <point x="129" y="599" type="line"/>
      <point x="181" y="604"/>
      <point x="182" y="602"/>
      <point x="184" y="558" type="curve"/>
      <point x="185" y="531"/>
      <point x="184" y="503"/>
      <point x="181" y="468" type="curve"/>
      <point x="190" y="460" type="line"/>
      <point x="227" y="472"/>
      <point x="301" y="485"/>
    </contour>
    <component base="x"/>
  </outline>
</glyph>
